G04 #@! TF.GenerationSoftware,KiCad,Pcbnew,7.0.10-7.0.10~ubuntu22.04.1*
G04 #@! TF.CreationDate,2024-03-22T17:45:40+01:00*
G04 #@! TF.ProjectId,dac-base-board,6461632d-6261-4736-952d-626f6172642e,v0.1*
G04 #@! TF.SameCoordinates,Original*
G04 #@! TF.FileFunction,Soldermask,Top*
G04 #@! TF.FilePolarity,Negative*
%FSLAX46Y46*%
G04 Gerber Fmt 4.6, Leading zero omitted, Abs format (unit mm)*
G04 Created by KiCad (PCBNEW 7.0.10-7.0.10~ubuntu22.04.1) date 2024-03-22 17:45:40*
%MOMM*%
%LPD*%
G01*
G04 APERTURE LIST*
G04 Aperture macros list*
%AMRoundRect*
0 Rectangle with rounded corners*
0 $1 Rounding radius*
0 $2 $3 $4 $5 $6 $7 $8 $9 X,Y pos of 4 corners*
0 Add a 4 corners polygon primitive as box body*
4,1,4,$2,$3,$4,$5,$6,$7,$8,$9,$2,$3,0*
0 Add four circle primitives for the rounded corners*
1,1,$1+$1,$2,$3*
1,1,$1+$1,$4,$5*
1,1,$1+$1,$6,$7*
1,1,$1+$1,$8,$9*
0 Add four rect primitives between the rounded corners*
20,1,$1+$1,$2,$3,$4,$5,0*
20,1,$1+$1,$4,$5,$6,$7,0*
20,1,$1+$1,$6,$7,$8,$9,0*
20,1,$1+$1,$8,$9,$2,$3,0*%
G04 Aperture macros list end*
%ADD10C,6.400000*%
%ADD11R,1.700000X1.700000*%
%ADD12O,1.700000X1.700000*%
%ADD13RoundRect,0.250000X-0.625000X0.400000X-0.625000X-0.400000X0.625000X-0.400000X0.625000X0.400000X0*%
%ADD14RoundRect,0.250001X0.462499X0.624999X-0.462499X0.624999X-0.462499X-0.624999X0.462499X-0.624999X0*%
G04 APERTURE END LIST*
D10*
X29464000Y-18796000D03*
X49464000Y-18796000D03*
X49464000Y-72644000D03*
X29464000Y-72796000D03*
D11*
X50800000Y-26924000D03*
D12*
X50800000Y-29464000D03*
X50800000Y-32004000D03*
X50800000Y-34544000D03*
X50800000Y-37084000D03*
X50800000Y-39624000D03*
X50800000Y-42164000D03*
X50800000Y-44704000D03*
D13*
X44016000Y-52044000D03*
X44016000Y-55144000D03*
D11*
X27760000Y-24130000D03*
D12*
X27760000Y-26670000D03*
X27760000Y-29210000D03*
X27760000Y-31750000D03*
X27760000Y-34290000D03*
X27760000Y-36830000D03*
X27760000Y-39370000D03*
X27760000Y-41910000D03*
X27760000Y-44450000D03*
X27760000Y-46990000D03*
X27760000Y-49530000D03*
X27760000Y-52070000D03*
X27760000Y-54610000D03*
X27760000Y-57150000D03*
X27760000Y-59690000D03*
X27760000Y-62230000D03*
X27760000Y-64770000D03*
X27760000Y-67310000D03*
D11*
X50800000Y-53848000D03*
D12*
X50800000Y-56388000D03*
X50800000Y-58928000D03*
X50800000Y-61468000D03*
X50800000Y-64008000D03*
X50800000Y-66548000D03*
D14*
X51271500Y-50800000D03*
X48296500Y-50800000D03*
M02*
