G04 #@! TF.GenerationSoftware,KiCad,Pcbnew,7.0.10-7.0.10~ubuntu22.04.1*
G04 #@! TF.CreationDate,2024-03-22T17:45:40+01:00*
G04 #@! TF.ProjectId,dac-base-board,6461632d-6261-4736-952d-626f6172642e,v0.1*
G04 #@! TF.SameCoordinates,Original*
G04 #@! TF.FileFunction,Legend,Bot*
G04 #@! TF.FilePolarity,Positive*
%FSLAX46Y46*%
G04 Gerber Fmt 4.6, Leading zero omitted, Abs format (unit mm)*
G04 Created by KiCad (PCBNEW 7.0.10-7.0.10~ubuntu22.04.1) date 2024-03-22 17:45:40*
%MOMM*%
%LPD*%
G01*
G04 APERTURE LIST*
%ADD10C,0.150000*%
%ADD11C,0.120000*%
G04 APERTURE END LIST*
D10*
X35194404Y-47359819D02*
X35194404Y-48169342D01*
X35194404Y-48169342D02*
X35146785Y-48264580D01*
X35146785Y-48264580D02*
X35099166Y-48312200D01*
X35099166Y-48312200D02*
X35003928Y-48359819D01*
X35003928Y-48359819D02*
X34813452Y-48359819D01*
X34813452Y-48359819D02*
X34718214Y-48312200D01*
X34718214Y-48312200D02*
X34670595Y-48264580D01*
X34670595Y-48264580D02*
X34622976Y-48169342D01*
X34622976Y-48169342D02*
X34622976Y-47359819D01*
X33718214Y-47693152D02*
X33718214Y-48359819D01*
X33956309Y-47312200D02*
X34194404Y-48026485D01*
X34194404Y-48026485D02*
X33575357Y-48026485D01*
X43761904Y-47359819D02*
X43761904Y-48169342D01*
X43761904Y-48169342D02*
X43714285Y-48264580D01*
X43714285Y-48264580D02*
X43666666Y-48312200D01*
X43666666Y-48312200D02*
X43571428Y-48359819D01*
X43571428Y-48359819D02*
X43380952Y-48359819D01*
X43380952Y-48359819D02*
X43285714Y-48312200D01*
X43285714Y-48312200D02*
X43238095Y-48264580D01*
X43238095Y-48264580D02*
X43190476Y-48169342D01*
X43190476Y-48169342D02*
X43190476Y-47359819D01*
X42809523Y-47359819D02*
X42190476Y-47359819D01*
X42190476Y-47359819D02*
X42523809Y-47740771D01*
X42523809Y-47740771D02*
X42380952Y-47740771D01*
X42380952Y-47740771D02*
X42285714Y-47788390D01*
X42285714Y-47788390D02*
X42238095Y-47836009D01*
X42238095Y-47836009D02*
X42190476Y-47931247D01*
X42190476Y-47931247D02*
X42190476Y-48169342D01*
X42190476Y-48169342D02*
X42238095Y-48264580D01*
X42238095Y-48264580D02*
X42285714Y-48312200D01*
X42285714Y-48312200D02*
X42380952Y-48359819D01*
X42380952Y-48359819D02*
X42666666Y-48359819D01*
X42666666Y-48359819D02*
X42761904Y-48312200D01*
X42761904Y-48312200D02*
X42809523Y-48264580D01*
X35194404Y-38824819D02*
X35194404Y-39634342D01*
X35194404Y-39634342D02*
X35146785Y-39729580D01*
X35146785Y-39729580D02*
X35099166Y-39777200D01*
X35099166Y-39777200D02*
X35003928Y-39824819D01*
X35003928Y-39824819D02*
X34813452Y-39824819D01*
X34813452Y-39824819D02*
X34718214Y-39777200D01*
X34718214Y-39777200D02*
X34670595Y-39729580D01*
X34670595Y-39729580D02*
X34622976Y-39634342D01*
X34622976Y-39634342D02*
X34622976Y-38824819D01*
X34194404Y-38920057D02*
X34146785Y-38872438D01*
X34146785Y-38872438D02*
X34051547Y-38824819D01*
X34051547Y-38824819D02*
X33813452Y-38824819D01*
X33813452Y-38824819D02*
X33718214Y-38872438D01*
X33718214Y-38872438D02*
X33670595Y-38920057D01*
X33670595Y-38920057D02*
X33622976Y-39015295D01*
X33622976Y-39015295D02*
X33622976Y-39110533D01*
X33622976Y-39110533D02*
X33670595Y-39253390D01*
X33670595Y-39253390D02*
X34242023Y-39824819D01*
X34242023Y-39824819D02*
X33622976Y-39824819D01*
X43761904Y-38824819D02*
X43761904Y-39634342D01*
X43761904Y-39634342D02*
X43714285Y-39729580D01*
X43714285Y-39729580D02*
X43666666Y-39777200D01*
X43666666Y-39777200D02*
X43571428Y-39824819D01*
X43571428Y-39824819D02*
X43380952Y-39824819D01*
X43380952Y-39824819D02*
X43285714Y-39777200D01*
X43285714Y-39777200D02*
X43238095Y-39729580D01*
X43238095Y-39729580D02*
X43190476Y-39634342D01*
X43190476Y-39634342D02*
X43190476Y-38824819D01*
X42190476Y-39824819D02*
X42761904Y-39824819D01*
X42476190Y-39824819D02*
X42476190Y-38824819D01*
X42476190Y-38824819D02*
X42571428Y-38967676D01*
X42571428Y-38967676D02*
X42666666Y-39062914D01*
X42666666Y-39062914D02*
X42761904Y-39110533D01*
D11*
X34432500Y-44520000D02*
X32232500Y-44520000D01*
X34432500Y-44520000D02*
X38032500Y-44520000D01*
X34432500Y-51290000D02*
X32232500Y-51290000D01*
X34432500Y-51290000D02*
X36632500Y-51290000D01*
X43000000Y-44520000D02*
X40800000Y-44520000D01*
X43000000Y-44520000D02*
X46600000Y-44520000D01*
X43000000Y-51290000D02*
X40800000Y-51290000D01*
X43000000Y-51290000D02*
X45200000Y-51290000D01*
X34432500Y-42755000D02*
X36632500Y-42755000D01*
X34432500Y-42755000D02*
X32232500Y-42755000D01*
X34432500Y-35985000D02*
X38032500Y-35985000D01*
X34432500Y-35985000D02*
X32232500Y-35985000D01*
X43000000Y-42755000D02*
X45200000Y-42755000D01*
X43000000Y-42755000D02*
X40800000Y-42755000D01*
X43000000Y-35985000D02*
X46600000Y-35985000D01*
X43000000Y-35985000D02*
X40800000Y-35985000D01*
M02*
