G04 #@! TF.GenerationSoftware,KiCad,Pcbnew,7.0.10-7.0.10~ubuntu22.04.1*
G04 #@! TF.CreationDate,2024-03-22T17:45:40+01:00*
G04 #@! TF.ProjectId,dac-base-board,6461632d-6261-4736-952d-626f6172642e,v0.1*
G04 #@! TF.SameCoordinates,Original*
G04 #@! TF.FileFunction,Copper,L2,Bot*
G04 #@! TF.FilePolarity,Positive*
%FSLAX46Y46*%
G04 Gerber Fmt 4.6, Leading zero omitted, Abs format (unit mm)*
G04 Created by KiCad (PCBNEW 7.0.10-7.0.10~ubuntu22.04.1) date 2024-03-22 17:45:40*
%MOMM*%
%LPD*%
G01*
G04 APERTURE LIST*
G04 Aperture macros list*
%AMRoundRect*
0 Rectangle with rounded corners*
0 $1 Rounding radius*
0 $2 $3 $4 $5 $6 $7 $8 $9 X,Y pos of 4 corners*
0 Add a 4 corners polygon primitive as box body*
4,1,4,$2,$3,$4,$5,$6,$7,$8,$9,$2,$3,0*
0 Add four circle primitives for the rounded corners*
1,1,$1+$1,$2,$3*
1,1,$1+$1,$4,$5*
1,1,$1+$1,$6,$7*
1,1,$1+$1,$8,$9*
0 Add four rect primitives between the rounded corners*
20,1,$1+$1,$2,$3,$4,$5,0*
20,1,$1+$1,$4,$5,$6,$7,0*
20,1,$1+$1,$6,$7,$8,$9,0*
20,1,$1+$1,$8,$9,$2,$3,0*%
G04 Aperture macros list end*
G04 #@! TA.AperFunction,ComponentPad*
%ADD10C,6.400000*%
G04 #@! TD*
G04 #@! TA.AperFunction,ComponentPad*
%ADD11R,1.700000X1.700000*%
G04 #@! TD*
G04 #@! TA.AperFunction,ComponentPad*
%ADD12O,1.700000X1.700000*%
G04 #@! TD*
G04 #@! TA.AperFunction,SMDPad,CuDef*
%ADD13RoundRect,0.100000X0.637500X0.100000X-0.637500X0.100000X-0.637500X-0.100000X0.637500X-0.100000X0*%
G04 #@! TD*
G04 #@! TA.AperFunction,ViaPad*
%ADD14C,0.800000*%
G04 #@! TD*
G04 #@! TA.AperFunction,Conductor*
%ADD15C,0.250000*%
G04 #@! TD*
G04 #@! TA.AperFunction,Conductor*
%ADD16C,0.400000*%
G04 #@! TD*
G04 APERTURE END LIST*
D10*
X29464000Y-18796000D03*
X49464000Y-18796000D03*
X49464000Y-72644000D03*
X29464000Y-72796000D03*
D11*
X50800000Y-26924000D03*
D12*
X50800000Y-29464000D03*
X50800000Y-32004000D03*
X50800000Y-34544000D03*
X50800000Y-37084000D03*
X50800000Y-39624000D03*
X50800000Y-42164000D03*
X50800000Y-44704000D03*
D13*
X37295000Y-44980000D03*
X37295000Y-45630000D03*
X37295000Y-46280000D03*
X37295000Y-46930000D03*
X37295000Y-47580000D03*
X37295000Y-48230000D03*
X37295000Y-48880000D03*
X37295000Y-49530000D03*
X37295000Y-50180000D03*
X37295000Y-50830000D03*
X31570000Y-50830000D03*
X31570000Y-50180000D03*
X31570000Y-49530000D03*
X31570000Y-48880000D03*
X31570000Y-48230000D03*
X31570000Y-47580000D03*
X31570000Y-46930000D03*
X31570000Y-46280000D03*
X31570000Y-45630000D03*
X31570000Y-44980000D03*
X45862500Y-44980000D03*
X45862500Y-45630000D03*
X45862500Y-46280000D03*
X45862500Y-46930000D03*
X45862500Y-47580000D03*
X45862500Y-48230000D03*
X45862500Y-48880000D03*
X45862500Y-49530000D03*
X45862500Y-50180000D03*
X45862500Y-50830000D03*
X40137500Y-50830000D03*
X40137500Y-50180000D03*
X40137500Y-49530000D03*
X40137500Y-48880000D03*
X40137500Y-48230000D03*
X40137500Y-47580000D03*
X40137500Y-46930000D03*
X40137500Y-46280000D03*
X40137500Y-45630000D03*
X40137500Y-44980000D03*
X31570000Y-36445000D03*
X31570000Y-37095000D03*
X31570000Y-37745000D03*
X31570000Y-38395000D03*
X31570000Y-39045000D03*
X31570000Y-39695000D03*
X31570000Y-40345000D03*
X31570000Y-40995000D03*
X31570000Y-41645000D03*
X31570000Y-42295000D03*
X37295000Y-42295000D03*
X37295000Y-41645000D03*
X37295000Y-40995000D03*
X37295000Y-40345000D03*
X37295000Y-39695000D03*
X37295000Y-39045000D03*
X37295000Y-38395000D03*
X37295000Y-37745000D03*
X37295000Y-37095000D03*
X37295000Y-36445000D03*
X40137500Y-36445000D03*
X40137500Y-37095000D03*
X40137500Y-37745000D03*
X40137500Y-38395000D03*
X40137500Y-39045000D03*
X40137500Y-39695000D03*
X40137500Y-40345000D03*
X40137500Y-40995000D03*
X40137500Y-41645000D03*
X40137500Y-42295000D03*
X45862500Y-42295000D03*
X45862500Y-41645000D03*
X45862500Y-40995000D03*
X45862500Y-40345000D03*
X45862500Y-39695000D03*
X45862500Y-39045000D03*
X45862500Y-38395000D03*
X45862500Y-37745000D03*
X45862500Y-37095000D03*
X45862500Y-36445000D03*
D11*
X27760000Y-24130000D03*
D12*
X27760000Y-26670000D03*
X27760000Y-29210000D03*
X27760000Y-31750000D03*
X27760000Y-34290000D03*
X27760000Y-36830000D03*
X27760000Y-39370000D03*
X27760000Y-41910000D03*
X27760000Y-44450000D03*
X27760000Y-46990000D03*
X27760000Y-49530000D03*
X27760000Y-52070000D03*
X27760000Y-54610000D03*
X27760000Y-57150000D03*
X27760000Y-59690000D03*
X27760000Y-62230000D03*
X27760000Y-64770000D03*
X27760000Y-67310000D03*
D11*
X50800000Y-53848000D03*
D12*
X50800000Y-56388000D03*
X50800000Y-58928000D03*
X50800000Y-61468000D03*
X50800000Y-64008000D03*
X50800000Y-66548000D03*
D14*
X44924479Y-60835000D03*
X40137500Y-42444999D03*
X43508000Y-60835000D03*
X41095000Y-52705000D03*
X44016000Y-55144000D03*
X31570000Y-43180000D03*
X31570000Y-52070000D03*
X35470000Y-55245000D03*
X34925000Y-57150000D03*
X34200000Y-59690000D03*
X33475000Y-62230000D03*
X46228000Y-43688000D03*
X47244000Y-46217347D03*
X48260000Y-46942347D03*
X49277207Y-47363811D03*
X50183817Y-47785785D03*
X51182891Y-47742694D03*
X51049347Y-49017347D03*
D15*
X45862500Y-46280000D02*
X47181347Y-46280000D01*
X47181347Y-46280000D02*
X47244000Y-46217347D01*
X48260000Y-46942347D02*
X46612346Y-46942347D01*
X46612346Y-46942347D02*
X46599999Y-46930000D01*
X46599999Y-46930000D02*
X45862500Y-46930000D01*
X45862500Y-41645000D02*
X47741000Y-41645000D01*
X47741000Y-41645000D02*
X50800000Y-44704000D01*
X50800000Y-42164000D02*
X49631000Y-40995000D01*
X49631000Y-40995000D02*
X45862500Y-40995000D01*
X45862500Y-40345000D02*
X50079000Y-40345000D01*
X50079000Y-40345000D02*
X50800000Y-39624000D01*
X45862500Y-39695000D02*
X48189000Y-39695000D01*
X48189000Y-39695000D02*
X50800000Y-37084000D01*
X45862500Y-38395000D02*
X46599999Y-38395000D01*
X46599999Y-38395000D02*
X49276000Y-35718999D01*
X49276000Y-35718999D02*
X49276000Y-33528000D01*
X49276000Y-33528000D02*
X50800000Y-32004000D01*
X50800000Y-34544000D02*
X50800000Y-34844999D01*
X50800000Y-34844999D02*
X46599999Y-39045000D01*
X46599999Y-39045000D02*
X45862500Y-39045000D01*
X45862500Y-37095000D02*
X46599999Y-37095000D01*
X46599999Y-37095000D02*
X46925000Y-36769999D01*
X46925000Y-36769999D02*
X46925000Y-30799000D01*
X46925000Y-30799000D02*
X50800000Y-26924000D01*
X45862500Y-37745000D02*
X46599999Y-37745000D01*
X46599999Y-37745000D02*
X47375000Y-36969999D01*
X47375000Y-36969999D02*
X47375000Y-32889000D01*
X47375000Y-32889000D02*
X50800000Y-29464000D01*
X46925000Y-45258812D02*
X46925000Y-44385000D01*
X46925000Y-44385000D02*
X46228000Y-43688000D01*
X45862500Y-50180000D02*
X47430000Y-50180000D01*
X47430000Y-50180000D02*
X47826000Y-49784000D01*
X47826000Y-49784000D02*
X51308000Y-49784000D01*
X51308000Y-49784000D02*
X51907891Y-49184109D01*
X51907891Y-49184109D02*
X51907891Y-45811891D01*
X51907891Y-45811891D02*
X50800000Y-44704000D01*
X46925000Y-45258812D02*
X46553812Y-45630000D01*
X46553812Y-45630000D02*
X45862500Y-45630000D01*
X49277207Y-47363811D02*
X48973671Y-47667347D01*
X46599999Y-47580000D02*
X45862500Y-47580000D01*
X48973671Y-47667347D02*
X46687346Y-47667347D01*
X46687346Y-47667347D02*
X46599999Y-47580000D01*
X50183817Y-47785785D02*
X49852255Y-48117347D01*
X49852255Y-48117347D02*
X46712652Y-48117347D01*
X46712652Y-48117347D02*
X46599999Y-48230000D01*
X46599999Y-48230000D02*
X45862500Y-48230000D01*
X50474042Y-48567347D02*
X46899048Y-48567347D01*
X50767653Y-48292347D02*
X50749042Y-48292347D01*
X50749042Y-48292347D02*
X50474042Y-48567347D01*
X51189457Y-47749260D02*
X51189457Y-47870543D01*
X51189457Y-47870543D02*
X50767653Y-48292347D01*
X51182891Y-47742694D02*
X51189457Y-47749260D01*
X46899048Y-48567347D02*
X46586395Y-48880000D01*
X46586395Y-48880000D02*
X45862500Y-48880000D01*
X47085444Y-49017347D02*
X46697791Y-49405000D01*
X51049347Y-49017347D02*
X47085444Y-49017347D01*
X46697791Y-49405000D02*
X45000001Y-49405000D01*
X45000001Y-49405000D02*
X45125001Y-49530000D01*
X45125001Y-49530000D02*
X45862500Y-49530000D01*
X50800000Y-58928000D02*
X40587000Y-58928000D01*
X40587000Y-58928000D02*
X32205000Y-67310000D01*
X32205000Y-67310000D02*
X27760000Y-67310000D01*
X43508000Y-60835000D02*
X49221000Y-66548000D01*
X49221000Y-66548000D02*
X50800000Y-66548000D01*
X44924479Y-60835000D02*
X47627000Y-60835000D01*
X47627000Y-60835000D02*
X50800000Y-64008000D01*
D16*
X43635000Y-57150000D02*
X45466000Y-57150000D01*
X45466000Y-57150000D02*
X48768000Y-53848000D01*
X48768000Y-53848000D02*
X50800000Y-53848000D01*
X44016000Y-55144000D02*
X44016000Y-54636000D01*
X44016000Y-54636000D02*
X42365000Y-52985000D01*
X42365000Y-52985000D02*
X42365000Y-42752500D01*
D15*
X35470000Y-55245000D02*
X35380000Y-55155000D01*
X35380000Y-55155000D02*
X35380000Y-49847500D01*
X35380000Y-49847500D02*
X33112500Y-47580000D01*
X33112500Y-47580000D02*
X31570000Y-47580000D01*
X34925000Y-57150000D02*
X34745000Y-56970000D01*
X34745000Y-56970000D02*
X34745000Y-50117760D01*
X34745000Y-50117760D02*
X32857240Y-48230000D01*
X32857240Y-48230000D02*
X31570000Y-48230000D01*
X34200000Y-59690000D02*
X33925000Y-59415000D01*
X33925000Y-59415000D02*
X33925000Y-49934156D01*
X33925000Y-49934156D02*
X32870844Y-48880000D01*
X32870844Y-48880000D02*
X31570000Y-48880000D01*
D16*
X44270000Y-25400000D02*
X43000000Y-24130000D01*
X44270000Y-37240122D02*
X44270000Y-25400000D01*
X43000000Y-24130000D02*
X27760000Y-24130000D01*
D15*
X40137500Y-50830000D02*
X40137500Y-51747500D01*
X40137500Y-51747500D02*
X41095000Y-52705000D01*
D16*
X45065122Y-50830000D02*
X45570000Y-50830000D01*
X43635000Y-57150000D02*
X40142500Y-53657500D01*
X36497622Y-50830000D02*
X37315000Y-50830000D01*
X37315000Y-50830000D02*
X40460000Y-53975000D01*
X40460000Y-53975000D02*
X43635000Y-57150000D01*
X35095000Y-35845000D02*
X33825000Y-35845000D01*
X33825000Y-35845000D02*
X33225000Y-36445000D01*
X33225000Y-36445000D02*
X31570000Y-36445000D01*
X40137500Y-36445000D02*
X40934878Y-36445000D01*
X40934878Y-36445000D02*
X42365000Y-37875122D01*
X42365000Y-37875122D02*
X42365000Y-42752500D01*
X42365000Y-42752500D02*
X40137500Y-44980000D01*
X35095000Y-35845000D02*
X34110000Y-36830000D01*
X39537500Y-35845000D02*
X35095000Y-35845000D01*
X34110000Y-36830000D02*
X34110000Y-42440000D01*
X40137500Y-36445000D02*
X39537500Y-35845000D01*
X34110000Y-42440000D02*
X31570000Y-44980000D01*
X35380000Y-46355000D02*
X35380000Y-43815000D01*
X35380000Y-43815000D02*
X35380000Y-41177378D01*
X35380000Y-46355000D02*
X35380000Y-46097622D01*
X35380000Y-48787538D02*
X35380000Y-46355000D01*
X37295000Y-50830000D02*
X36497622Y-50830000D01*
X36497622Y-50830000D02*
X35905000Y-50237378D01*
X35905000Y-50237378D02*
X35905000Y-49312538D01*
X35905000Y-49312538D02*
X35380000Y-48787538D01*
X35380000Y-46097622D02*
X36497622Y-44980000D01*
X36497622Y-44980000D02*
X37295000Y-44980000D01*
X37295000Y-42295000D02*
X36497622Y-42295000D01*
X36497622Y-42295000D02*
X35380000Y-41177378D01*
X35380000Y-41177378D02*
X35380000Y-37562622D01*
X35380000Y-37562622D02*
X36497622Y-36445000D01*
X36497622Y-36445000D02*
X37295000Y-36445000D01*
X44270000Y-43387500D02*
X44270000Y-50034878D01*
X44270000Y-50034878D02*
X45065122Y-50830000D01*
X45065122Y-50830000D02*
X45862500Y-50830000D01*
X45862500Y-44980000D02*
X44270000Y-43387500D01*
X44270000Y-43387500D02*
X44270000Y-41499878D01*
X45862500Y-36445000D02*
X45065122Y-36445000D01*
X45065122Y-36445000D02*
X44270000Y-37240122D01*
X45065122Y-42295000D02*
X45862500Y-42295000D01*
X44270000Y-37240122D02*
X44270000Y-41499878D01*
X44270000Y-41499878D02*
X45065122Y-42295000D01*
D15*
X31570000Y-43180000D02*
X31570000Y-42295000D01*
X31570000Y-50830000D02*
X31570000Y-52070000D01*
X33475000Y-62230000D02*
X33475000Y-50120552D01*
X33475000Y-50120552D02*
X32884448Y-49530000D01*
X32884448Y-49530000D02*
X31570000Y-49530000D01*
X31570000Y-50180000D02*
X32307499Y-50180000D01*
X32307499Y-50180000D02*
X32840000Y-50712501D01*
X32840000Y-59690000D02*
X27760000Y-64770000D01*
X32840000Y-50712501D02*
X32840000Y-59690000D01*
X31570000Y-46930000D02*
X29725000Y-46930000D01*
X29725000Y-46930000D02*
X29385000Y-47270000D01*
X29385000Y-47270000D02*
X29385000Y-50445000D01*
X29385000Y-50445000D02*
X27760000Y-52070000D01*
X31570000Y-46280000D02*
X29106396Y-46280000D01*
X29106396Y-46280000D02*
X28935000Y-46451396D01*
X28935000Y-46451396D02*
X28935000Y-48355000D01*
X28935000Y-48355000D02*
X27760000Y-49530000D01*
X31570000Y-45630000D02*
X29120000Y-45630000D01*
X29120000Y-45630000D02*
X27760000Y-46990000D01*
X31570000Y-37095000D02*
X30832501Y-37095000D01*
X30832501Y-37095000D02*
X30285000Y-36547499D01*
X30285000Y-36547499D02*
X30285000Y-29195000D01*
X30285000Y-29195000D02*
X27760000Y-26670000D01*
X31570000Y-37745000D02*
X30832501Y-37745000D01*
X30832501Y-37745000D02*
X29835000Y-36747499D01*
X29835000Y-36747499D02*
X29835000Y-31285000D01*
X29835000Y-31285000D02*
X27760000Y-29210000D01*
X31570000Y-38395000D02*
X30832501Y-38395000D01*
X30832501Y-38395000D02*
X29385000Y-36947499D01*
X29385000Y-36947499D02*
X29385000Y-33375000D01*
X29385000Y-33375000D02*
X27760000Y-31750000D01*
X31570000Y-39045000D02*
X30832501Y-39045000D01*
X30832501Y-39045000D02*
X28935000Y-37147499D01*
X28935000Y-37147499D02*
X28935000Y-35465000D01*
X28935000Y-35465000D02*
X27760000Y-34290000D01*
X27760000Y-36830000D02*
X30625000Y-39695000D01*
X30625000Y-39695000D02*
X31570000Y-39695000D01*
X31570000Y-40345000D02*
X28735000Y-40345000D01*
X28735000Y-40345000D02*
X27760000Y-39370000D01*
X27760000Y-41910000D02*
X28675000Y-40995000D01*
X28675000Y-40995000D02*
X31570000Y-40995000D01*
X31570000Y-41645000D02*
X30565000Y-41645000D01*
X30565000Y-41645000D02*
X27760000Y-44450000D01*
X40137500Y-37095000D02*
X37295000Y-37095000D01*
X37295000Y-37745000D02*
X40137500Y-37745000D01*
X40137500Y-38395000D02*
X37295000Y-38395000D01*
X37295000Y-39045000D02*
X40137500Y-39045000D01*
X40137500Y-39695000D02*
X37295000Y-39695000D01*
X37295000Y-40345000D02*
X40137500Y-40345000D01*
X40137500Y-40995000D02*
X37295000Y-40995000D01*
X37295000Y-41645000D02*
X40137500Y-41645000D01*
X40137500Y-45630000D02*
X37295000Y-45630000D01*
X37295000Y-46280000D02*
X40137500Y-46280000D01*
X40137500Y-46930000D02*
X37295000Y-46930000D01*
X37295000Y-47580000D02*
X40137500Y-47580000D01*
X40137500Y-48230000D02*
X37295000Y-48230000D01*
X37295000Y-48880000D02*
X40137500Y-48880000D01*
X40137500Y-49530000D02*
X37295000Y-49530000D01*
X40137500Y-50180000D02*
X37295000Y-50180000D01*
G04 #@! TA.AperFunction,Conductor*
G36*
X36010683Y-36565185D02*
G01*
X36056438Y-36617989D01*
X36066583Y-36653316D01*
X36072942Y-36701622D01*
X36072945Y-36701634D01*
X36081337Y-36721895D01*
X36088804Y-36791364D01*
X36081338Y-36816794D01*
X36072456Y-36838238D01*
X36072455Y-36838239D01*
X36057000Y-36955638D01*
X36057000Y-37234363D01*
X36072453Y-37351753D01*
X36072457Y-37351765D01*
X36081066Y-37372550D01*
X36088533Y-37442019D01*
X36081066Y-37467450D01*
X36072457Y-37488234D01*
X36072455Y-37488239D01*
X36057000Y-37605638D01*
X36057000Y-37884363D01*
X36072453Y-38001753D01*
X36072457Y-38001765D01*
X36081066Y-38022550D01*
X36088533Y-38092019D01*
X36081066Y-38117450D01*
X36072457Y-38138234D01*
X36072455Y-38138239D01*
X36057000Y-38255638D01*
X36057000Y-38534363D01*
X36072453Y-38651753D01*
X36072457Y-38651765D01*
X36081066Y-38672550D01*
X36088533Y-38742019D01*
X36081066Y-38767450D01*
X36072457Y-38788234D01*
X36072455Y-38788239D01*
X36057000Y-38905638D01*
X36057000Y-39184363D01*
X36072453Y-39301753D01*
X36072457Y-39301765D01*
X36081066Y-39322550D01*
X36088533Y-39392019D01*
X36081066Y-39417450D01*
X36072457Y-39438234D01*
X36072455Y-39438239D01*
X36057000Y-39555638D01*
X36057000Y-39834363D01*
X36072453Y-39951753D01*
X36072457Y-39951765D01*
X36081066Y-39972550D01*
X36088533Y-40042019D01*
X36081066Y-40067450D01*
X36072457Y-40088234D01*
X36072455Y-40088239D01*
X36057000Y-40205638D01*
X36057000Y-40484363D01*
X36072453Y-40601753D01*
X36072457Y-40601765D01*
X36081066Y-40622550D01*
X36088533Y-40692019D01*
X36081066Y-40717450D01*
X36072457Y-40738234D01*
X36072455Y-40738239D01*
X36057000Y-40855638D01*
X36057000Y-41134363D01*
X36072453Y-41251753D01*
X36072457Y-41251765D01*
X36081066Y-41272550D01*
X36088533Y-41342019D01*
X36081066Y-41367450D01*
X36072457Y-41388234D01*
X36072455Y-41388239D01*
X36057000Y-41505638D01*
X36057000Y-41784363D01*
X36072453Y-41901753D01*
X36072456Y-41901762D01*
X36081337Y-41923203D01*
X36088804Y-41992673D01*
X36081338Y-42018103D01*
X36072943Y-42038370D01*
X36065487Y-42095000D01*
X36108000Y-42095000D01*
X36175039Y-42114685D01*
X36206375Y-42143513D01*
X36229215Y-42173279D01*
X36229216Y-42173280D01*
X36229218Y-42173282D01*
X36354659Y-42269536D01*
X36354660Y-42269536D01*
X36358684Y-42272624D01*
X36399886Y-42329052D01*
X36404041Y-42398798D01*
X36369829Y-42459719D01*
X36308111Y-42492471D01*
X36283197Y-42495000D01*
X36065490Y-42495000D01*
X36065488Y-42495001D01*
X36072942Y-42551627D01*
X36072944Y-42551633D01*
X36133399Y-42697585D01*
X36229575Y-42822924D01*
X36354913Y-42919100D01*
X36500865Y-42979554D01*
X36500869Y-42979555D01*
X36618176Y-42994999D01*
X37094999Y-42994999D01*
X37095000Y-42994998D01*
X37095000Y-42469499D01*
X37114685Y-42402460D01*
X37167489Y-42356705D01*
X37218997Y-42345499D01*
X37371001Y-42345499D01*
X37438039Y-42365184D01*
X37483794Y-42417988D01*
X37495000Y-42469499D01*
X37495000Y-42994999D01*
X37971824Y-42994999D01*
X38089128Y-42979557D01*
X38089133Y-42979555D01*
X38235085Y-42919100D01*
X38360424Y-42822924D01*
X38456600Y-42697586D01*
X38517054Y-42551634D01*
X38517055Y-42551630D01*
X38532499Y-42434330D01*
X38532500Y-42434316D01*
X38532500Y-42394500D01*
X38552185Y-42327461D01*
X38604989Y-42281706D01*
X38656500Y-42270500D01*
X38775501Y-42270500D01*
X38842540Y-42290185D01*
X38888295Y-42342989D01*
X38899501Y-42394500D01*
X38899501Y-42434363D01*
X38914953Y-42551753D01*
X38914956Y-42551762D01*
X38929897Y-42587834D01*
X38975464Y-42697841D01*
X39071718Y-42823282D01*
X39197159Y-42919536D01*
X39343238Y-42980044D01*
X39370805Y-42983673D01*
X39434698Y-43011937D01*
X39446762Y-43023634D01*
X39509242Y-43093024D01*
X39531629Y-43117887D01*
X39684765Y-43229147D01*
X39684770Y-43229150D01*
X39857692Y-43306141D01*
X39857697Y-43306143D01*
X40042854Y-43345499D01*
X40042855Y-43345499D01*
X40232144Y-43345499D01*
X40232146Y-43345499D01*
X40417303Y-43306143D01*
X40533245Y-43254521D01*
X40602491Y-43245236D01*
X40665768Y-43274864D01*
X40702982Y-43333999D01*
X40702318Y-43403865D01*
X40671359Y-43455482D01*
X39883660Y-44243181D01*
X39822337Y-44276666D01*
X39795979Y-44279500D01*
X39460636Y-44279500D01*
X39343246Y-44294953D01*
X39343237Y-44294956D01*
X39197160Y-44355463D01*
X39071718Y-44451718D01*
X38975463Y-44577160D01*
X38914956Y-44723237D01*
X38914955Y-44723239D01*
X38899500Y-44840638D01*
X38899500Y-44880500D01*
X38879815Y-44947539D01*
X38827011Y-44993294D01*
X38775500Y-45004500D01*
X38656499Y-45004500D01*
X38589460Y-44984815D01*
X38543705Y-44932011D01*
X38532499Y-44880500D01*
X38532499Y-44840675D01*
X38517057Y-44723371D01*
X38517055Y-44723366D01*
X38456600Y-44577414D01*
X38360424Y-44452075D01*
X38235086Y-44355899D01*
X38089134Y-44295445D01*
X38089130Y-44295444D01*
X37971830Y-44280000D01*
X37495000Y-44280000D01*
X37495000Y-44805500D01*
X37475315Y-44872539D01*
X37422511Y-44918294D01*
X37371000Y-44929500D01*
X37219000Y-44929500D01*
X37151961Y-44909815D01*
X37106206Y-44857011D01*
X37095000Y-44805500D01*
X37095000Y-44280000D01*
X36618175Y-44280000D01*
X36500871Y-44295442D01*
X36500866Y-44295444D01*
X36354914Y-44355899D01*
X36229575Y-44452075D01*
X36133399Y-44577413D01*
X36072944Y-44723368D01*
X36065487Y-44780000D01*
X36283197Y-44780000D01*
X36350236Y-44799685D01*
X36395991Y-44852489D01*
X36405935Y-44921647D01*
X36376910Y-44985203D01*
X36358684Y-45002376D01*
X36354660Y-45005463D01*
X36354659Y-45005464D01*
X36341447Y-45015602D01*
X36229215Y-45101720D01*
X36206375Y-45131487D01*
X36149947Y-45172690D01*
X36108000Y-45180000D01*
X36065490Y-45180000D01*
X36065488Y-45180001D01*
X36072941Y-45236622D01*
X36072945Y-45236634D01*
X36081337Y-45256895D01*
X36088804Y-45326364D01*
X36081338Y-45351794D01*
X36072456Y-45373238D01*
X36072455Y-45373239D01*
X36057000Y-45490638D01*
X36057000Y-45769363D01*
X36072453Y-45886753D01*
X36072457Y-45886765D01*
X36081066Y-45907550D01*
X36088533Y-45977019D01*
X36081066Y-46002450D01*
X36072457Y-46023234D01*
X36072455Y-46023239D01*
X36057000Y-46140638D01*
X36057000Y-46419363D01*
X36072453Y-46536753D01*
X36072457Y-46536765D01*
X36081066Y-46557550D01*
X36088533Y-46627019D01*
X36081066Y-46652450D01*
X36072457Y-46673234D01*
X36072455Y-46673239D01*
X36057000Y-46790638D01*
X36057000Y-47069363D01*
X36072453Y-47186753D01*
X36072457Y-47186765D01*
X36081066Y-47207550D01*
X36088533Y-47277019D01*
X36081066Y-47302450D01*
X36072457Y-47323234D01*
X36072455Y-47323239D01*
X36057000Y-47440638D01*
X36057000Y-47719363D01*
X36072453Y-47836753D01*
X36072457Y-47836765D01*
X36081066Y-47857550D01*
X36088533Y-47927019D01*
X36081066Y-47952450D01*
X36072457Y-47973234D01*
X36072455Y-47973239D01*
X36057000Y-48090638D01*
X36057000Y-48369363D01*
X36072453Y-48486753D01*
X36072457Y-48486765D01*
X36081066Y-48507550D01*
X36088533Y-48577019D01*
X36081066Y-48602450D01*
X36072457Y-48623234D01*
X36072455Y-48623239D01*
X36057000Y-48740638D01*
X36057000Y-49019363D01*
X36072453Y-49136753D01*
X36072457Y-49136765D01*
X36081066Y-49157550D01*
X36088533Y-49227019D01*
X36081066Y-49252450D01*
X36072457Y-49273234D01*
X36072456Y-49273238D01*
X36061400Y-49357216D01*
X36033133Y-49421112D01*
X35974809Y-49459583D01*
X35904944Y-49460414D01*
X35845721Y-49423342D01*
X35840664Y-49417051D01*
X35839595Y-49415913D01*
X35805945Y-49388076D01*
X35797304Y-49380213D01*
X33613303Y-47196212D01*
X33603480Y-47183950D01*
X33603259Y-47184134D01*
X33598286Y-47178122D01*
X33549276Y-47132099D01*
X33546477Y-47129386D01*
X33526977Y-47109885D01*
X33526971Y-47109880D01*
X33523786Y-47107409D01*
X33514934Y-47099848D01*
X33483082Y-47069938D01*
X33483080Y-47069936D01*
X33483077Y-47069935D01*
X33465529Y-47060288D01*
X33449263Y-47049604D01*
X33433432Y-47037324D01*
X33393349Y-47019978D01*
X33382863Y-47014841D01*
X33344594Y-46993803D01*
X33344592Y-46993802D01*
X33325193Y-46988822D01*
X33306781Y-46982518D01*
X33288398Y-46974562D01*
X33288392Y-46974560D01*
X33245260Y-46967729D01*
X33233822Y-46965361D01*
X33191520Y-46954500D01*
X33191519Y-46954500D01*
X33171484Y-46954500D01*
X33152086Y-46952973D01*
X33144662Y-46951797D01*
X33132305Y-46949840D01*
X33132304Y-46949840D01*
X33088825Y-46953950D01*
X33077156Y-46954500D01*
X32931999Y-46954500D01*
X32864960Y-46934815D01*
X32819205Y-46882011D01*
X32807999Y-46830500D01*
X32807999Y-46790638D01*
X32803254Y-46754596D01*
X32792544Y-46673238D01*
X32792542Y-46673234D01*
X32783935Y-46652455D01*
X32776465Y-46582986D01*
X32783935Y-46557545D01*
X32792544Y-46536762D01*
X32808000Y-46419361D01*
X32807999Y-46140640D01*
X32805097Y-46118599D01*
X32804777Y-46116170D01*
X32792544Y-46023238D01*
X32792542Y-46023234D01*
X32783935Y-46002455D01*
X32776465Y-45932986D01*
X32783935Y-45907545D01*
X32792544Y-45886762D01*
X32808000Y-45769361D01*
X32807999Y-45490640D01*
X32807716Y-45488493D01*
X32800437Y-45433196D01*
X32792544Y-45373238D01*
X32783934Y-45352454D01*
X32776465Y-45282986D01*
X32783935Y-45257545D01*
X32784204Y-45256895D01*
X32792544Y-45236762D01*
X32808000Y-45119361D01*
X32807999Y-44840640D01*
X32803418Y-44805844D01*
X32814183Y-44736811D01*
X32838673Y-44701982D01*
X34587731Y-42952924D01*
X34593151Y-42947822D01*
X34638183Y-42907929D01*
X34672358Y-42858416D01*
X34676779Y-42852407D01*
X34713877Y-42805057D01*
X34718029Y-42795828D01*
X34729062Y-42776268D01*
X34729419Y-42775750D01*
X34734818Y-42767930D01*
X34756154Y-42711668D01*
X34759014Y-42704766D01*
X34783693Y-42649934D01*
X34783692Y-42649934D01*
X34783694Y-42649932D01*
X34785520Y-42639965D01*
X34791548Y-42618340D01*
X34795140Y-42608872D01*
X34802389Y-42549169D01*
X34803516Y-42541762D01*
X34803637Y-42541100D01*
X34814357Y-42482606D01*
X34810726Y-42422577D01*
X34810500Y-42415090D01*
X34810500Y-37171519D01*
X34830185Y-37104480D01*
X34846819Y-37083838D01*
X35348838Y-36581819D01*
X35410161Y-36548334D01*
X35436519Y-36545500D01*
X35943644Y-36545500D01*
X36010683Y-36565185D01*
G37*
G04 #@! TD.AperFunction*
G04 #@! TA.AperFunction,Conductor*
G36*
X53282539Y-14753912D02*
G01*
X53328294Y-14806716D01*
X53339500Y-14858227D01*
X53339500Y-18034107D01*
X53319815Y-18101146D01*
X53267011Y-18146901D01*
X53197853Y-18156845D01*
X53134297Y-18127820D01*
X53096523Y-18069042D01*
X53093027Y-18053505D01*
X53092637Y-18051045D01*
X53088602Y-18025567D01*
X52988214Y-17650913D01*
X52849214Y-17288806D01*
X52673125Y-16943211D01*
X52461876Y-16617916D01*
X52217781Y-16316484D01*
X51943516Y-16042219D01*
X51642084Y-15798124D01*
X51642082Y-15798122D01*
X51316793Y-15586877D01*
X50971197Y-15410787D01*
X50609094Y-15271788D01*
X50609087Y-15271786D01*
X50234433Y-15171398D01*
X50234429Y-15171397D01*
X50234428Y-15171397D01*
X49851339Y-15110722D01*
X49464001Y-15090422D01*
X49463999Y-15090422D01*
X49076660Y-15110722D01*
X48693572Y-15171397D01*
X48693570Y-15171397D01*
X48318905Y-15271788D01*
X47956802Y-15410787D01*
X47611206Y-15586877D01*
X47285917Y-15798122D01*
X46984488Y-16042215D01*
X46984480Y-16042222D01*
X46710222Y-16316480D01*
X46710215Y-16316488D01*
X46466122Y-16617917D01*
X46254877Y-16943206D01*
X46078787Y-17288802D01*
X45939788Y-17650905D01*
X45839397Y-18025570D01*
X45839397Y-18025572D01*
X45778722Y-18408660D01*
X45758422Y-18795999D01*
X45758422Y-18796000D01*
X45778722Y-19183339D01*
X45839397Y-19566427D01*
X45839397Y-19566429D01*
X45939788Y-19941094D01*
X46078787Y-20303197D01*
X46254877Y-20648793D01*
X46466122Y-20974082D01*
X46466124Y-20974084D01*
X46710219Y-21275516D01*
X46984484Y-21549781D01*
X46984488Y-21549784D01*
X47285917Y-21793877D01*
X47611206Y-22005122D01*
X47611211Y-22005125D01*
X47956806Y-22181214D01*
X48318913Y-22320214D01*
X48693567Y-22420602D01*
X49076662Y-22481278D01*
X49442576Y-22500455D01*
X49463999Y-22501578D01*
X49464000Y-22501578D01*
X49464001Y-22501578D01*
X49484301Y-22500514D01*
X49851338Y-22481278D01*
X50234433Y-22420602D01*
X50609087Y-22320214D01*
X50971194Y-22181214D01*
X51316789Y-22005125D01*
X51642084Y-21793876D01*
X51943516Y-21549781D01*
X52217781Y-21275516D01*
X52461876Y-20974084D01*
X52673125Y-20648789D01*
X52849214Y-20303194D01*
X52988214Y-19941087D01*
X53088602Y-19566433D01*
X53093027Y-19538493D01*
X53122956Y-19475359D01*
X53182268Y-19438428D01*
X53252130Y-19439426D01*
X53310363Y-19478036D01*
X53338477Y-19541999D01*
X53339500Y-19557892D01*
X53339500Y-71882107D01*
X53319815Y-71949146D01*
X53267011Y-71994901D01*
X53197853Y-72004845D01*
X53134297Y-71975820D01*
X53096523Y-71917042D01*
X53093027Y-71901505D01*
X53092637Y-71899045D01*
X53088602Y-71873567D01*
X52988214Y-71498913D01*
X52849214Y-71136806D01*
X52673125Y-70791211D01*
X52461876Y-70465916D01*
X52217781Y-70164484D01*
X51943516Y-69890219D01*
X51642084Y-69646124D01*
X51642082Y-69646122D01*
X51316793Y-69434877D01*
X50971197Y-69258787D01*
X50609094Y-69119788D01*
X50609087Y-69119786D01*
X50234433Y-69019398D01*
X50234429Y-69019397D01*
X50234428Y-69019397D01*
X49851339Y-68958722D01*
X49464001Y-68938422D01*
X49463999Y-68938422D01*
X49076660Y-68958722D01*
X48693572Y-69019397D01*
X48693570Y-69019397D01*
X48318905Y-69119788D01*
X47956802Y-69258787D01*
X47611206Y-69434877D01*
X47285917Y-69646122D01*
X46984488Y-69890215D01*
X46984480Y-69890222D01*
X46710222Y-70164480D01*
X46710215Y-70164488D01*
X46466122Y-70465917D01*
X46254877Y-70791206D01*
X46078787Y-71136802D01*
X45939788Y-71498905D01*
X45839397Y-71873570D01*
X45839397Y-71873572D01*
X45778722Y-72256660D01*
X45758422Y-72643999D01*
X45758422Y-72644000D01*
X45778722Y-73031339D01*
X45839397Y-73414427D01*
X45839397Y-73414429D01*
X45939788Y-73789094D01*
X46078787Y-74151197D01*
X46254877Y-74496793D01*
X46466122Y-74822082D01*
X46589211Y-74974084D01*
X46710219Y-75123516D01*
X46984484Y-75397781D01*
X46984488Y-75397784D01*
X47285917Y-75641877D01*
X47519977Y-75793877D01*
X47611211Y-75853125D01*
X47956806Y-76029214D01*
X48318913Y-76168214D01*
X48693567Y-76268602D01*
X49076662Y-76329278D01*
X49442576Y-76348455D01*
X49463999Y-76349578D01*
X49464000Y-76349578D01*
X49464001Y-76349578D01*
X49484301Y-76348514D01*
X49851338Y-76329278D01*
X50234433Y-76268602D01*
X50609087Y-76168214D01*
X50971194Y-76029214D01*
X51316789Y-75853125D01*
X51642084Y-75641876D01*
X51943516Y-75397781D01*
X52217781Y-75123516D01*
X52461876Y-74822084D01*
X52673125Y-74496789D01*
X52849214Y-74151194D01*
X52988214Y-73789087D01*
X53088602Y-73414433D01*
X53093027Y-73386493D01*
X53122956Y-73323359D01*
X53182268Y-73286428D01*
X53252130Y-73287426D01*
X53310363Y-73326036D01*
X53338477Y-73389999D01*
X53339500Y-73405892D01*
X53339500Y-76583500D01*
X53319815Y-76650539D01*
X53267011Y-76696294D01*
X53215500Y-76707500D01*
X29998597Y-76707500D01*
X29931558Y-76687815D01*
X29885803Y-76635011D01*
X29875859Y-76565853D01*
X29904884Y-76502297D01*
X29963662Y-76464523D01*
X29979199Y-76461027D01*
X30002855Y-76457280D01*
X30234433Y-76420602D01*
X30609087Y-76320214D01*
X30971194Y-76181214D01*
X31316789Y-76005125D01*
X31642084Y-75793876D01*
X31943516Y-75549781D01*
X32217781Y-75275516D01*
X32461876Y-74974084D01*
X32673125Y-74648789D01*
X32849214Y-74303194D01*
X32988214Y-73941087D01*
X33088602Y-73566433D01*
X33149278Y-73183338D01*
X33169578Y-72796000D01*
X33149278Y-72408662D01*
X33088602Y-72025567D01*
X32988214Y-71650913D01*
X32849214Y-71288806D01*
X32673125Y-70943211D01*
X32461876Y-70617916D01*
X32217781Y-70316484D01*
X31943516Y-70042219D01*
X31909164Y-70014401D01*
X31642082Y-69798122D01*
X31316793Y-69586877D01*
X30971197Y-69410787D01*
X30609094Y-69271788D01*
X30609087Y-69271786D01*
X30234433Y-69171398D01*
X30234429Y-69171397D01*
X30234428Y-69171397D01*
X29851339Y-69110722D01*
X29464001Y-69090422D01*
X29463999Y-69090422D01*
X29076660Y-69110722D01*
X28693572Y-69171397D01*
X28693570Y-69171397D01*
X28318905Y-69271788D01*
X27956802Y-69410787D01*
X27611206Y-69586877D01*
X27285917Y-69798122D01*
X26984488Y-70042215D01*
X26984480Y-70042222D01*
X26710222Y-70316480D01*
X26710215Y-70316488D01*
X26466122Y-70617917D01*
X26254877Y-70943206D01*
X26078787Y-71288802D01*
X25939788Y-71650905D01*
X25839397Y-72025570D01*
X25839397Y-72025572D01*
X25778722Y-72408660D01*
X25758422Y-72795999D01*
X25758422Y-72796000D01*
X25778722Y-73183339D01*
X25839397Y-73566427D01*
X25839397Y-73566429D01*
X25939788Y-73941094D01*
X26078787Y-74303197D01*
X26254877Y-74648793D01*
X26466122Y-74974082D01*
X26466124Y-74974084D01*
X26710219Y-75275516D01*
X26984484Y-75549781D01*
X26984488Y-75549784D01*
X27285917Y-75793877D01*
X27377151Y-75853125D01*
X27611211Y-76005125D01*
X27956806Y-76181214D01*
X28318913Y-76320214D01*
X28693567Y-76420602D01*
X28914887Y-76455655D01*
X28948801Y-76461027D01*
X29011936Y-76490956D01*
X29048867Y-76550268D01*
X29047869Y-76620130D01*
X29009259Y-76678363D01*
X28945296Y-76706477D01*
X28929403Y-76707500D01*
X25450500Y-76707500D01*
X25383461Y-76687815D01*
X25337706Y-76635011D01*
X25326500Y-76583500D01*
X25326500Y-67310000D01*
X26404341Y-67310000D01*
X26424936Y-67545403D01*
X26424938Y-67545413D01*
X26486094Y-67773655D01*
X26486096Y-67773659D01*
X26486097Y-67773663D01*
X26562234Y-67936939D01*
X26585965Y-67987830D01*
X26585967Y-67987834D01*
X26694281Y-68142521D01*
X26721505Y-68181401D01*
X26888599Y-68348495D01*
X26985384Y-68416265D01*
X27082165Y-68484032D01*
X27082167Y-68484033D01*
X27082170Y-68484035D01*
X27296337Y-68583903D01*
X27524592Y-68645063D01*
X27712918Y-68661539D01*
X27759999Y-68665659D01*
X27760000Y-68665659D01*
X27760001Y-68665659D01*
X27799234Y-68662226D01*
X27995408Y-68645063D01*
X28223663Y-68583903D01*
X28437830Y-68484035D01*
X28631401Y-68348495D01*
X28798495Y-68181401D01*
X28933652Y-67988377D01*
X28988229Y-67944752D01*
X29035227Y-67935500D01*
X32122257Y-67935500D01*
X32137877Y-67937224D01*
X32137904Y-67936939D01*
X32145660Y-67937671D01*
X32145667Y-67937673D01*
X32212873Y-67935561D01*
X32216768Y-67935500D01*
X32244346Y-67935500D01*
X32244350Y-67935500D01*
X32248324Y-67934997D01*
X32259963Y-67934080D01*
X32303627Y-67932709D01*
X32322869Y-67927117D01*
X32341912Y-67923174D01*
X32361792Y-67920664D01*
X32402401Y-67904585D01*
X32413444Y-67900803D01*
X32455390Y-67888618D01*
X32472629Y-67878422D01*
X32490103Y-67869862D01*
X32508727Y-67862488D01*
X32508727Y-67862487D01*
X32508732Y-67862486D01*
X32544083Y-67836800D01*
X32553814Y-67830408D01*
X32591420Y-67808170D01*
X32605589Y-67793999D01*
X32620379Y-67781368D01*
X32636587Y-67769594D01*
X32664438Y-67735926D01*
X32672279Y-67727309D01*
X40809772Y-59589819D01*
X40871095Y-59556334D01*
X40897453Y-59553500D01*
X49524773Y-59553500D01*
X49591812Y-59573185D01*
X49626348Y-59606377D01*
X49761501Y-59799396D01*
X49761506Y-59799402D01*
X49928597Y-59966493D01*
X49928603Y-59966498D01*
X50114158Y-60096425D01*
X50157783Y-60151002D01*
X50164977Y-60220500D01*
X50133454Y-60282855D01*
X50114158Y-60299575D01*
X49928597Y-60429505D01*
X49761505Y-60596597D01*
X49625965Y-60790169D01*
X49625964Y-60790171D01*
X49526098Y-61004335D01*
X49526094Y-61004344D01*
X49464938Y-61232586D01*
X49464936Y-61232596D01*
X49444341Y-61467999D01*
X49444341Y-61468388D01*
X49444292Y-61468553D01*
X49443869Y-61473394D01*
X49442896Y-61473308D01*
X49424656Y-61535427D01*
X49371852Y-61581182D01*
X49302694Y-61591126D01*
X49239138Y-61562101D01*
X49232660Y-61556069D01*
X48127803Y-60451212D01*
X48117980Y-60438950D01*
X48117759Y-60439134D01*
X48112786Y-60433122D01*
X48063776Y-60387099D01*
X48060977Y-60384386D01*
X48041477Y-60364885D01*
X48041471Y-60364880D01*
X48038286Y-60362409D01*
X48029434Y-60354848D01*
X47997582Y-60324938D01*
X47997580Y-60324936D01*
X47997577Y-60324935D01*
X47980029Y-60315288D01*
X47963763Y-60304604D01*
X47947932Y-60292324D01*
X47907849Y-60274978D01*
X47897363Y-60269841D01*
X47859094Y-60248803D01*
X47859092Y-60248802D01*
X47839693Y-60243822D01*
X47821281Y-60237518D01*
X47802898Y-60229562D01*
X47802892Y-60229560D01*
X47759760Y-60222729D01*
X47748322Y-60220361D01*
X47706020Y-60209500D01*
X47706019Y-60209500D01*
X47685984Y-60209500D01*
X47666586Y-60207973D01*
X47659162Y-60206797D01*
X47646805Y-60204840D01*
X47646804Y-60204840D01*
X47603325Y-60208950D01*
X47591656Y-60209500D01*
X45628227Y-60209500D01*
X45561188Y-60189815D01*
X45536079Y-60168474D01*
X45530352Y-60162114D01*
X45530348Y-60162110D01*
X45377213Y-60050851D01*
X45377208Y-60050848D01*
X45204286Y-59973857D01*
X45204281Y-59973855D01*
X45058480Y-59942865D01*
X45019125Y-59934500D01*
X44829833Y-59934500D01*
X44797376Y-59941398D01*
X44644676Y-59973855D01*
X44644671Y-59973857D01*
X44471749Y-60050848D01*
X44471744Y-60050851D01*
X44318614Y-60162106D01*
X44318604Y-60162115D01*
X44308385Y-60173464D01*
X44248897Y-60210110D01*
X44179040Y-60208777D01*
X44124090Y-60173461D01*
X44113871Y-60162112D01*
X44113870Y-60162111D01*
X43960734Y-60050851D01*
X43960729Y-60050848D01*
X43787807Y-59973857D01*
X43787802Y-59973855D01*
X43642001Y-59942865D01*
X43602646Y-59934500D01*
X43413354Y-59934500D01*
X43380897Y-59941398D01*
X43228197Y-59973855D01*
X43228192Y-59973857D01*
X43055270Y-60050848D01*
X43055265Y-60050851D01*
X42902129Y-60162111D01*
X42775466Y-60302785D01*
X42680821Y-60466715D01*
X42680818Y-60466722D01*
X42622327Y-60646740D01*
X42622326Y-60646744D01*
X42602540Y-60835000D01*
X42622326Y-61023256D01*
X42622327Y-61023259D01*
X42680818Y-61203277D01*
X42680821Y-61203284D01*
X42775467Y-61367216D01*
X42877185Y-61480185D01*
X42902129Y-61507888D01*
X43055265Y-61619148D01*
X43055270Y-61619151D01*
X43228192Y-61696142D01*
X43228197Y-61696144D01*
X43413354Y-61735500D01*
X43472548Y-61735500D01*
X43539587Y-61755185D01*
X43560229Y-61771819D01*
X48720197Y-66931788D01*
X48730022Y-66944051D01*
X48730243Y-66943869D01*
X48735211Y-66949874D01*
X48784222Y-66995899D01*
X48787021Y-66998612D01*
X48806522Y-67018114D01*
X48806526Y-67018117D01*
X48806529Y-67018120D01*
X48809702Y-67020581D01*
X48818574Y-67028159D01*
X48850418Y-67058062D01*
X48867976Y-67067714D01*
X48884235Y-67078395D01*
X48900064Y-67090673D01*
X48940155Y-67108021D01*
X48950626Y-67113151D01*
X48973180Y-67125550D01*
X48988902Y-67134194D01*
X48988904Y-67134195D01*
X48988908Y-67134197D01*
X49008316Y-67139180D01*
X49026719Y-67145481D01*
X49045101Y-67153436D01*
X49045102Y-67153436D01*
X49045104Y-67153437D01*
X49088250Y-67160270D01*
X49099672Y-67162636D01*
X49141981Y-67173500D01*
X49162016Y-67173500D01*
X49181414Y-67175026D01*
X49201194Y-67178159D01*
X49201195Y-67178160D01*
X49201195Y-67178159D01*
X49201196Y-67178160D01*
X49244675Y-67174050D01*
X49256344Y-67173500D01*
X49524773Y-67173500D01*
X49591812Y-67193185D01*
X49626348Y-67226377D01*
X49761500Y-67419395D01*
X49761505Y-67419401D01*
X49928599Y-67586495D01*
X50025384Y-67654265D01*
X50122165Y-67722032D01*
X50122167Y-67722033D01*
X50122170Y-67722035D01*
X50336337Y-67821903D01*
X50564592Y-67883063D01*
X50752918Y-67899539D01*
X50799999Y-67903659D01*
X50800000Y-67903659D01*
X50800001Y-67903659D01*
X50839234Y-67900226D01*
X51035408Y-67883063D01*
X51263663Y-67821903D01*
X51477830Y-67722035D01*
X51671401Y-67586495D01*
X51838495Y-67419401D01*
X51974035Y-67225830D01*
X52073903Y-67011663D01*
X52135063Y-66783408D01*
X52155659Y-66548000D01*
X52135063Y-66312592D01*
X52073903Y-66084337D01*
X51974035Y-65870171D01*
X51930852Y-65808498D01*
X51838494Y-65676597D01*
X51671402Y-65509506D01*
X51671396Y-65509501D01*
X51485842Y-65379575D01*
X51442217Y-65324998D01*
X51435023Y-65255500D01*
X51466546Y-65193145D01*
X51485842Y-65176425D01*
X51508026Y-65160891D01*
X51671401Y-65046495D01*
X51838495Y-64879401D01*
X51974035Y-64685830D01*
X52073903Y-64471663D01*
X52135063Y-64243408D01*
X52155659Y-64008000D01*
X52135063Y-63772592D01*
X52073903Y-63544337D01*
X51974035Y-63330171D01*
X51930852Y-63268498D01*
X51838494Y-63136597D01*
X51671402Y-62969506D01*
X51671396Y-62969501D01*
X51485842Y-62839575D01*
X51442217Y-62784998D01*
X51435023Y-62715500D01*
X51466546Y-62653145D01*
X51485842Y-62636425D01*
X51540323Y-62598277D01*
X51671401Y-62506495D01*
X51838495Y-62339401D01*
X51974035Y-62145830D01*
X52073903Y-61931663D01*
X52135063Y-61703408D01*
X52155659Y-61468000D01*
X52135063Y-61232592D01*
X52073903Y-61004337D01*
X51974035Y-60790171D01*
X51941206Y-60743285D01*
X51838494Y-60596597D01*
X51671402Y-60429506D01*
X51671396Y-60429501D01*
X51485842Y-60299575D01*
X51442217Y-60244998D01*
X51435023Y-60175500D01*
X51466546Y-60113145D01*
X51485842Y-60096425D01*
X51550931Y-60050849D01*
X51671401Y-59966495D01*
X51838495Y-59799401D01*
X51974035Y-59605830D01*
X52073903Y-59391663D01*
X52135063Y-59163408D01*
X52155659Y-58928000D01*
X52135063Y-58692592D01*
X52073903Y-58464337D01*
X51974035Y-58250171D01*
X51973652Y-58249623D01*
X51838494Y-58056597D01*
X51671402Y-57889506D01*
X51671396Y-57889501D01*
X51485842Y-57759575D01*
X51442217Y-57704998D01*
X51435023Y-57635500D01*
X51466546Y-57573145D01*
X51485842Y-57556425D01*
X51540323Y-57518277D01*
X51671401Y-57426495D01*
X51838495Y-57259401D01*
X51974035Y-57065830D01*
X52073903Y-56851663D01*
X52135063Y-56623408D01*
X52155659Y-56388000D01*
X52135063Y-56152592D01*
X52073903Y-55924337D01*
X51974035Y-55710171D01*
X51950258Y-55676214D01*
X51838496Y-55516600D01*
X51803291Y-55481395D01*
X51716179Y-55394283D01*
X51682696Y-55332963D01*
X51687680Y-55263271D01*
X51729551Y-55207337D01*
X51760529Y-55190422D01*
X51892086Y-55141354D01*
X51892093Y-55141350D01*
X52007187Y-55055190D01*
X52007190Y-55055187D01*
X52093350Y-54940093D01*
X52093354Y-54940086D01*
X52143596Y-54805379D01*
X52143598Y-54805372D01*
X52149999Y-54745844D01*
X52150000Y-54745827D01*
X52150000Y-54098000D01*
X51233686Y-54098000D01*
X51259493Y-54057844D01*
X51300000Y-53919889D01*
X51300000Y-53776111D01*
X51259493Y-53638156D01*
X51233686Y-53598000D01*
X52150000Y-53598000D01*
X52150000Y-52950172D01*
X52149999Y-52950155D01*
X52143598Y-52890627D01*
X52143596Y-52890620D01*
X52093354Y-52755913D01*
X52093350Y-52755906D01*
X52007190Y-52640812D01*
X52007187Y-52640809D01*
X51892093Y-52554649D01*
X51892086Y-52554645D01*
X51757379Y-52504403D01*
X51757372Y-52504401D01*
X51697844Y-52498000D01*
X51050000Y-52498000D01*
X51050000Y-53412498D01*
X50942315Y-53363320D01*
X50835763Y-53348000D01*
X50764237Y-53348000D01*
X50657685Y-53363320D01*
X50550000Y-53412498D01*
X50550000Y-52498000D01*
X49902155Y-52498000D01*
X49842627Y-52504401D01*
X49842620Y-52504403D01*
X49707913Y-52554645D01*
X49707906Y-52554649D01*
X49592812Y-52640809D01*
X49592809Y-52640812D01*
X49506649Y-52755906D01*
X49506645Y-52755913D01*
X49456403Y-52890620D01*
X49456401Y-52890627D01*
X49450000Y-52950155D01*
X49450000Y-53598000D01*
X50366314Y-53598000D01*
X50340507Y-53638156D01*
X50300000Y-53776111D01*
X50300000Y-53919889D01*
X50340507Y-54057844D01*
X50366314Y-54098000D01*
X49450000Y-54098000D01*
X49450000Y-54745844D01*
X49456401Y-54805372D01*
X49456403Y-54805379D01*
X49506645Y-54940086D01*
X49506649Y-54940093D01*
X49592809Y-55055187D01*
X49592812Y-55055190D01*
X49707906Y-55141350D01*
X49707913Y-55141354D01*
X49839470Y-55190421D01*
X49895403Y-55232292D01*
X49919821Y-55297756D01*
X49904970Y-55366029D01*
X49883819Y-55394284D01*
X49761503Y-55516600D01*
X49625965Y-55710169D01*
X49625964Y-55710171D01*
X49526098Y-55924335D01*
X49526094Y-55924344D01*
X49464938Y-56152586D01*
X49464936Y-56152596D01*
X49444341Y-56387999D01*
X49444341Y-56388000D01*
X49464936Y-56623403D01*
X49464938Y-56623413D01*
X49526094Y-56851655D01*
X49526096Y-56851659D01*
X49526097Y-56851663D01*
X49577427Y-56961740D01*
X49625965Y-57065830D01*
X49625967Y-57065834D01*
X49761501Y-57259395D01*
X49761506Y-57259402D01*
X49928597Y-57426493D01*
X49928603Y-57426498D01*
X50114158Y-57556425D01*
X50157783Y-57611002D01*
X50164977Y-57680500D01*
X50133454Y-57742855D01*
X50114158Y-57759575D01*
X49928597Y-57889505D01*
X49761505Y-58056597D01*
X49626348Y-58249623D01*
X49571771Y-58293248D01*
X49524773Y-58302500D01*
X40669738Y-58302500D01*
X40654121Y-58300776D01*
X40654094Y-58301062D01*
X40646332Y-58300327D01*
X40579145Y-58302439D01*
X40575251Y-58302500D01*
X40547650Y-58302500D01*
X40543962Y-58302965D01*
X40543649Y-58303005D01*
X40532031Y-58303918D01*
X40488373Y-58305290D01*
X40488372Y-58305290D01*
X40469129Y-58310881D01*
X40450079Y-58314825D01*
X40430211Y-58317334D01*
X40430210Y-58317334D01*
X40389599Y-58333413D01*
X40378554Y-58337194D01*
X40336614Y-58349379D01*
X40336610Y-58349381D01*
X40319366Y-58359579D01*
X40301905Y-58368133D01*
X40283274Y-58375510D01*
X40283262Y-58375517D01*
X40247933Y-58401185D01*
X40238173Y-58407596D01*
X40200580Y-58429829D01*
X40186414Y-58443995D01*
X40171624Y-58456627D01*
X40155414Y-58468404D01*
X40155411Y-58468407D01*
X40127573Y-58502058D01*
X40119711Y-58510697D01*
X31982228Y-66648181D01*
X31920905Y-66681666D01*
X31894547Y-66684500D01*
X29035227Y-66684500D01*
X28968188Y-66664815D01*
X28933652Y-66631623D01*
X28798494Y-66438597D01*
X28631402Y-66271506D01*
X28631396Y-66271501D01*
X28445842Y-66141575D01*
X28402217Y-66086998D01*
X28395023Y-66017500D01*
X28426546Y-65955145D01*
X28445842Y-65938425D01*
X28526065Y-65882252D01*
X28631401Y-65808495D01*
X28798495Y-65641401D01*
X28934035Y-65447830D01*
X29033903Y-65233663D01*
X29095063Y-65005408D01*
X29115659Y-64770000D01*
X29095063Y-64534592D01*
X29068143Y-64434125D01*
X29069806Y-64364276D01*
X29100235Y-64314353D01*
X32637821Y-60776768D01*
X32699142Y-60743285D01*
X32768834Y-60748269D01*
X32824767Y-60790141D01*
X32849184Y-60855605D01*
X32849500Y-60864451D01*
X32849500Y-61531312D01*
X32829815Y-61598351D01*
X32817650Y-61614284D01*
X32742466Y-61697784D01*
X32647821Y-61861715D01*
X32647818Y-61861722D01*
X32604645Y-61994596D01*
X32589326Y-62041744D01*
X32569540Y-62230000D01*
X32589326Y-62418256D01*
X32589327Y-62418259D01*
X32647818Y-62598277D01*
X32647821Y-62598284D01*
X32742467Y-62762216D01*
X32812122Y-62839575D01*
X32869129Y-62902888D01*
X33022265Y-63014148D01*
X33022270Y-63014151D01*
X33195192Y-63091142D01*
X33195197Y-63091144D01*
X33380354Y-63130500D01*
X33380355Y-63130500D01*
X33569644Y-63130500D01*
X33569646Y-63130500D01*
X33754803Y-63091144D01*
X33927730Y-63014151D01*
X34080871Y-62902888D01*
X34207533Y-62762216D01*
X34302179Y-62598284D01*
X34360674Y-62418256D01*
X34380460Y-62230000D01*
X34360674Y-62041744D01*
X34302179Y-61861716D01*
X34207533Y-61697784D01*
X34187159Y-61675156D01*
X34132350Y-61614284D01*
X34102120Y-61551292D01*
X34100500Y-61531312D01*
X34100500Y-60714500D01*
X34120185Y-60647461D01*
X34172989Y-60601706D01*
X34224500Y-60590500D01*
X34294644Y-60590500D01*
X34294646Y-60590500D01*
X34479803Y-60551144D01*
X34652730Y-60474151D01*
X34805871Y-60362888D01*
X34932533Y-60222216D01*
X35027179Y-60058284D01*
X35085674Y-59878256D01*
X35105460Y-59690000D01*
X35085674Y-59501744D01*
X35027179Y-59321716D01*
X34932533Y-59157784D01*
X34805871Y-59017112D01*
X34805870Y-59017111D01*
X34652731Y-58905849D01*
X34624063Y-58893085D01*
X34570826Y-58847834D01*
X34550506Y-58780984D01*
X34550500Y-58779806D01*
X34550500Y-58144142D01*
X34570185Y-58077103D01*
X34622989Y-58031348D01*
X34692147Y-58021404D01*
X34700270Y-58022850D01*
X34830354Y-58050500D01*
X34830355Y-58050500D01*
X35019644Y-58050500D01*
X35019646Y-58050500D01*
X35204803Y-58011144D01*
X35377730Y-57934151D01*
X35530871Y-57822888D01*
X35657533Y-57682216D01*
X35752179Y-57518284D01*
X35810674Y-57338256D01*
X35830460Y-57150000D01*
X35810674Y-56961744D01*
X35752179Y-56781716D01*
X35657533Y-56617784D01*
X35530871Y-56477112D01*
X35490333Y-56447659D01*
X35421614Y-56397732D01*
X35378949Y-56342402D01*
X35370500Y-56297414D01*
X35370500Y-56269500D01*
X35390185Y-56202461D01*
X35442989Y-56156706D01*
X35494500Y-56145500D01*
X35564644Y-56145500D01*
X35564646Y-56145500D01*
X35749803Y-56106144D01*
X35922730Y-56029151D01*
X36075871Y-55917888D01*
X36202533Y-55777216D01*
X36297179Y-55613284D01*
X36355674Y-55433256D01*
X36375460Y-55245000D01*
X36355674Y-55056744D01*
X36297179Y-54876716D01*
X36202533Y-54712784D01*
X36152922Y-54657686D01*
X36075876Y-54572116D01*
X36075871Y-54572112D01*
X36056613Y-54558120D01*
X36013948Y-54502790D01*
X36005500Y-54457803D01*
X36005500Y-51431196D01*
X36025185Y-51364157D01*
X36077989Y-51318402D01*
X36147147Y-51308458D01*
X36210703Y-51337483D01*
X36227878Y-51355712D01*
X36229575Y-51357924D01*
X36354913Y-51454100D01*
X36500865Y-51514554D01*
X36500869Y-51514555D01*
X36618176Y-51529999D01*
X37094999Y-51529999D01*
X37095000Y-51529998D01*
X37095000Y-51004499D01*
X37114685Y-50937460D01*
X37167489Y-50891705D01*
X37218997Y-50880499D01*
X37371001Y-50880499D01*
X37438039Y-50900184D01*
X37483794Y-50952988D01*
X37495000Y-51004499D01*
X37495000Y-51529999D01*
X37971824Y-51529999D01*
X38089128Y-51514557D01*
X38089133Y-51514555D01*
X38235085Y-51454100D01*
X38360424Y-51357924D01*
X38456600Y-51232586D01*
X38517054Y-51086634D01*
X38517055Y-51086630D01*
X38532499Y-50969330D01*
X38532500Y-50969316D01*
X38532500Y-50929500D01*
X38552185Y-50862461D01*
X38604989Y-50816706D01*
X38656500Y-50805500D01*
X38775501Y-50805500D01*
X38842540Y-50825185D01*
X38888295Y-50877989D01*
X38899501Y-50929500D01*
X38899501Y-50969363D01*
X38914953Y-51086753D01*
X38914956Y-51086762D01*
X38975464Y-51232841D01*
X39071718Y-51358282D01*
X39197159Y-51454536D01*
X39343238Y-51515044D01*
X39404186Y-51523067D01*
X39468081Y-51551333D01*
X39506553Y-51609657D01*
X39512000Y-51646006D01*
X39512000Y-51664755D01*
X39510275Y-51680372D01*
X39510561Y-51680399D01*
X39509826Y-51688165D01*
X39511939Y-51755372D01*
X39512000Y-51759267D01*
X39512000Y-51786857D01*
X39512503Y-51790835D01*
X39513418Y-51802467D01*
X39514790Y-51846124D01*
X39514791Y-51846127D01*
X39520380Y-51865367D01*
X39524324Y-51884411D01*
X39525623Y-51894688D01*
X39526836Y-51904292D01*
X39542914Y-51944903D01*
X39546697Y-51955952D01*
X39558881Y-51997888D01*
X39569080Y-52015134D01*
X39577638Y-52032603D01*
X39585014Y-52051232D01*
X39610681Y-52086560D01*
X39617093Y-52096321D01*
X39639328Y-52133917D01*
X39639333Y-52133924D01*
X39653490Y-52148080D01*
X39666128Y-52162876D01*
X39677905Y-52179086D01*
X39677906Y-52179087D01*
X39711557Y-52206925D01*
X39720198Y-52214788D01*
X40156038Y-52650629D01*
X40189523Y-52711952D01*
X40191678Y-52725348D01*
X40194890Y-52755906D01*
X40209326Y-52893256D01*
X40209327Y-52893259D01*
X40267818Y-53073277D01*
X40267821Y-53073284D01*
X40362467Y-53237216D01*
X40462218Y-53348000D01*
X40489129Y-53377888D01*
X40642265Y-53489148D01*
X40642270Y-53489151D01*
X40815192Y-53566142D01*
X40815197Y-53566144D01*
X41000354Y-53605500D01*
X41000355Y-53605500D01*
X41189644Y-53605500D01*
X41189646Y-53605500D01*
X41374803Y-53566144D01*
X41547730Y-53489151D01*
X41654144Y-53411836D01*
X41719947Y-53388358D01*
X41788001Y-53404183D01*
X41829078Y-53441717D01*
X41836817Y-53452929D01*
X41836816Y-53452929D01*
X41881828Y-53492805D01*
X41887283Y-53497940D01*
X43129262Y-54739919D01*
X43162747Y-54801242D01*
X43159512Y-54865917D01*
X43130328Y-54955737D01*
X43130326Y-54955743D01*
X43117932Y-55073664D01*
X43110540Y-55144000D01*
X43130326Y-55332256D01*
X43130327Y-55332259D01*
X43188818Y-55512277D01*
X43188821Y-55512284D01*
X43283467Y-55676216D01*
X43410129Y-55816888D01*
X43563265Y-55928148D01*
X43563270Y-55928151D01*
X43736192Y-56005142D01*
X43736197Y-56005144D01*
X43921354Y-56044500D01*
X43921355Y-56044500D01*
X44110644Y-56044500D01*
X44110646Y-56044500D01*
X44295803Y-56005144D01*
X44468730Y-55928151D01*
X44621871Y-55816888D01*
X44748533Y-55676216D01*
X44843179Y-55512284D01*
X44901674Y-55332256D01*
X44921460Y-55144000D01*
X44901674Y-54955744D01*
X44843179Y-54775716D01*
X44748533Y-54611784D01*
X44740878Y-54603282D01*
X44711062Y-54542668D01*
X44709515Y-54534228D01*
X44708387Y-54526817D01*
X44701140Y-54467127D01*
X44697548Y-54457656D01*
X44691521Y-54436034D01*
X44689695Y-54426071D01*
X44689693Y-54426063D01*
X44666528Y-54374596D01*
X44665003Y-54371208D01*
X44662154Y-54364331D01*
X44640818Y-54308070D01*
X44635062Y-54299731D01*
X44624034Y-54280177D01*
X44619881Y-54270949D01*
X44619878Y-54270945D01*
X44619878Y-54270944D01*
X44582788Y-54223603D01*
X44578352Y-54217574D01*
X44544183Y-54168071D01*
X44519648Y-54146335D01*
X44499145Y-54128171D01*
X44493707Y-54123051D01*
X43101819Y-52731162D01*
X43068334Y-52669839D01*
X43065500Y-52643481D01*
X43065500Y-49365413D01*
X44370773Y-49365413D01*
X44374994Y-49432510D01*
X44375178Y-49436397D01*
X44377291Y-49503625D01*
X44378512Y-49511328D01*
X44378230Y-49511372D01*
X44378955Y-49515526D01*
X44379235Y-49515473D01*
X44380696Y-49523135D01*
X44401481Y-49587105D01*
X44402625Y-49590826D01*
X44403961Y-49595424D01*
X44418266Y-49644662D01*
X44421384Y-49655392D01*
X44424482Y-49662553D01*
X44424220Y-49662666D01*
X44425954Y-49666506D01*
X44426213Y-49666385D01*
X44429532Y-49673439D01*
X44440492Y-49690708D01*
X44459250Y-49720266D01*
X44465552Y-49730195D01*
X44467588Y-49733518D01*
X44501829Y-49791417D01*
X44506614Y-49797586D01*
X44506387Y-49797761D01*
X44509020Y-49801048D01*
X44509241Y-49800866D01*
X44514211Y-49806874D01*
X44563240Y-49852915D01*
X44566037Y-49855626D01*
X44595982Y-49885571D01*
X44629467Y-49946894D01*
X44631240Y-49989436D01*
X44624500Y-50040636D01*
X44624500Y-50319363D01*
X44639953Y-50436753D01*
X44639956Y-50436762D01*
X44648837Y-50458203D01*
X44656304Y-50527673D01*
X44648838Y-50553103D01*
X44640443Y-50573370D01*
X44632987Y-50630000D01*
X44675500Y-50630000D01*
X44742539Y-50649685D01*
X44773875Y-50678513D01*
X44796715Y-50708279D01*
X44796716Y-50708280D01*
X44796718Y-50708282D01*
X44922159Y-50804536D01*
X44922160Y-50804536D01*
X44926184Y-50807624D01*
X44967386Y-50864052D01*
X44971541Y-50933798D01*
X44937329Y-50994719D01*
X44875611Y-51027471D01*
X44850697Y-51030000D01*
X44632990Y-51030000D01*
X44632988Y-51030001D01*
X44640442Y-51086627D01*
X44640444Y-51086633D01*
X44700899Y-51232585D01*
X44797075Y-51357924D01*
X44922413Y-51454100D01*
X45068365Y-51514554D01*
X45068369Y-51514555D01*
X45185676Y-51529999D01*
X45662499Y-51529999D01*
X45662500Y-51529998D01*
X45662500Y-51004499D01*
X45682185Y-50937460D01*
X45734989Y-50891705D01*
X45786497Y-50880499D01*
X45938501Y-50880499D01*
X46005539Y-50900184D01*
X46051294Y-50952988D01*
X46062500Y-51004499D01*
X46062500Y-51529999D01*
X46539324Y-51529999D01*
X46656628Y-51514557D01*
X46656633Y-51514555D01*
X46802585Y-51454100D01*
X46927924Y-51357924D01*
X47024100Y-51232586D01*
X47084554Y-51086634D01*
X47084555Y-51086630D01*
X47099999Y-50969330D01*
X47100000Y-50969316D01*
X47100000Y-50929500D01*
X47119685Y-50862461D01*
X47172489Y-50816706D01*
X47224000Y-50805500D01*
X47347257Y-50805500D01*
X47362877Y-50807224D01*
X47362904Y-50806939D01*
X47370660Y-50807671D01*
X47370667Y-50807673D01*
X47437873Y-50805561D01*
X47441768Y-50805500D01*
X47469346Y-50805500D01*
X47469350Y-50805500D01*
X47473324Y-50804997D01*
X47484963Y-50804080D01*
X47528627Y-50802709D01*
X47547869Y-50797117D01*
X47566912Y-50793174D01*
X47586792Y-50790664D01*
X47627401Y-50774585D01*
X47638444Y-50770803D01*
X47680390Y-50758618D01*
X47697629Y-50748422D01*
X47715103Y-50739862D01*
X47733727Y-50732488D01*
X47733727Y-50732487D01*
X47733732Y-50732486D01*
X47769083Y-50706800D01*
X47778814Y-50700408D01*
X47816420Y-50678170D01*
X47830589Y-50663999D01*
X47845379Y-50651368D01*
X47861587Y-50639594D01*
X47889438Y-50605926D01*
X47897269Y-50597319D01*
X48048772Y-50445817D01*
X48110095Y-50412334D01*
X48136452Y-50409500D01*
X51225257Y-50409500D01*
X51240877Y-50411224D01*
X51240904Y-50410939D01*
X51248660Y-50411671D01*
X51248667Y-50411673D01*
X51315873Y-50409561D01*
X51319768Y-50409500D01*
X51347346Y-50409500D01*
X51347350Y-50409500D01*
X51351324Y-50408997D01*
X51362963Y-50408080D01*
X51406627Y-50406709D01*
X51425869Y-50401117D01*
X51444912Y-50397174D01*
X51464792Y-50394664D01*
X51505401Y-50378585D01*
X51516444Y-50374803D01*
X51558390Y-50362618D01*
X51575629Y-50352422D01*
X51593103Y-50343862D01*
X51611727Y-50336488D01*
X51611727Y-50336487D01*
X51611732Y-50336486D01*
X51647083Y-50310800D01*
X51656814Y-50304408D01*
X51694420Y-50282170D01*
X51708589Y-50267999D01*
X51723379Y-50255368D01*
X51739587Y-50243594D01*
X51767438Y-50209926D01*
X51775279Y-50201309D01*
X52291678Y-49684911D01*
X52303933Y-49675095D01*
X52303750Y-49674873D01*
X52309759Y-49669900D01*
X52309768Y-49669895D01*
X52355840Y-49620831D01*
X52358457Y-49618132D01*
X52378011Y-49598580D01*
X52380467Y-49595412D01*
X52388047Y-49586536D01*
X52417953Y-49554691D01*
X52427606Y-49537129D01*
X52438280Y-49520879D01*
X52450564Y-49505045D01*
X52467910Y-49464959D01*
X52473048Y-49454471D01*
X52482985Y-49436397D01*
X52494088Y-49416201D01*
X52499068Y-49396800D01*
X52505369Y-49378397D01*
X52513329Y-49360005D01*
X52520163Y-49316850D01*
X52522526Y-49305440D01*
X52533391Y-49263128D01*
X52533391Y-49243092D01*
X52534918Y-49223691D01*
X52538051Y-49203913D01*
X52533941Y-49160433D01*
X52533391Y-49148764D01*
X52533391Y-45894628D01*
X52535115Y-45879014D01*
X52534829Y-45878987D01*
X52535563Y-45871224D01*
X52533452Y-45804034D01*
X52533391Y-45800140D01*
X52533391Y-45772542D01*
X52533391Y-45772541D01*
X52532888Y-45768561D01*
X52531971Y-45756912D01*
X52531518Y-45742500D01*
X52530600Y-45713263D01*
X52525011Y-45694028D01*
X52521065Y-45674975D01*
X52520816Y-45673002D01*
X52518555Y-45655099D01*
X52502469Y-45614472D01*
X52498694Y-45603445D01*
X52486508Y-45561501D01*
X52486507Y-45561499D01*
X52476312Y-45544260D01*
X52467751Y-45526784D01*
X52460377Y-45508160D01*
X52460376Y-45508158D01*
X52434700Y-45472817D01*
X52428303Y-45463081D01*
X52406061Y-45425470D01*
X52406058Y-45425467D01*
X52406056Y-45425464D01*
X52391896Y-45411304D01*
X52379261Y-45396511D01*
X52369873Y-45383591D01*
X52367485Y-45380304D01*
X52358940Y-45373235D01*
X52333836Y-45352467D01*
X52325195Y-45344604D01*
X52140237Y-45159646D01*
X52106752Y-45098323D01*
X52108142Y-45039876D01*
X52135063Y-44939408D01*
X52155659Y-44704000D01*
X52135063Y-44468592D01*
X52073903Y-44240337D01*
X51974035Y-44026171D01*
X51954712Y-43998574D01*
X51838494Y-43832597D01*
X51671402Y-43665506D01*
X51671396Y-43665501D01*
X51485842Y-43535575D01*
X51442217Y-43480998D01*
X51435023Y-43411500D01*
X51466546Y-43349145D01*
X51485842Y-43332425D01*
X51568047Y-43274864D01*
X51671401Y-43202495D01*
X51838495Y-43035401D01*
X51974035Y-42841830D01*
X52073903Y-42627663D01*
X52135063Y-42399408D01*
X52155659Y-42164000D01*
X52135063Y-41928592D01*
X52073903Y-41700337D01*
X51974035Y-41486171D01*
X51873100Y-41342019D01*
X51838494Y-41292597D01*
X51671402Y-41125506D01*
X51671396Y-41125501D01*
X51485842Y-40995575D01*
X51442217Y-40940998D01*
X51435023Y-40871500D01*
X51466546Y-40809145D01*
X51485842Y-40792425D01*
X51563233Y-40738235D01*
X51671401Y-40662495D01*
X51838495Y-40495401D01*
X51974035Y-40301830D01*
X52073903Y-40087663D01*
X52135063Y-39859408D01*
X52155659Y-39624000D01*
X52135063Y-39388592D01*
X52073903Y-39160337D01*
X51974035Y-38946171D01*
X51945655Y-38905639D01*
X51838494Y-38752597D01*
X51671402Y-38585506D01*
X51671396Y-38585501D01*
X51485842Y-38455575D01*
X51442217Y-38400998D01*
X51435023Y-38331500D01*
X51466546Y-38269145D01*
X51485842Y-38252425D01*
X51574590Y-38190283D01*
X51671401Y-38122495D01*
X51838495Y-37955401D01*
X51974035Y-37761830D01*
X52073903Y-37547663D01*
X52135063Y-37319408D01*
X52155659Y-37084000D01*
X52135063Y-36848592D01*
X52073903Y-36620337D01*
X51974035Y-36406171D01*
X51960365Y-36386647D01*
X51838494Y-36212597D01*
X51671402Y-36045506D01*
X51671396Y-36045501D01*
X51485842Y-35915575D01*
X51442217Y-35860998D01*
X51435023Y-35791500D01*
X51466546Y-35729145D01*
X51485842Y-35712425D01*
X51566475Y-35655965D01*
X51671401Y-35582495D01*
X51838495Y-35415401D01*
X51974035Y-35221830D01*
X52073903Y-35007663D01*
X52135063Y-34779408D01*
X52155659Y-34544000D01*
X52135063Y-34308592D01*
X52073903Y-34080337D01*
X51974035Y-33866171D01*
X51838495Y-33672599D01*
X51838494Y-33672597D01*
X51671402Y-33505506D01*
X51671396Y-33505501D01*
X51485842Y-33375575D01*
X51442217Y-33320998D01*
X51435023Y-33251500D01*
X51466546Y-33189145D01*
X51485842Y-33172425D01*
X51569971Y-33113517D01*
X51671401Y-33042495D01*
X51838495Y-32875401D01*
X51974035Y-32681830D01*
X52073903Y-32467663D01*
X52135063Y-32239408D01*
X52155659Y-32004000D01*
X52135063Y-31768592D01*
X52073903Y-31540337D01*
X51974035Y-31326171D01*
X51838495Y-31132599D01*
X51838494Y-31132597D01*
X51671402Y-30965506D01*
X51671396Y-30965501D01*
X51485842Y-30835575D01*
X51442217Y-30780998D01*
X51435023Y-30711500D01*
X51466546Y-30649145D01*
X51485842Y-30632425D01*
X51566475Y-30575965D01*
X51671401Y-30502495D01*
X51838495Y-30335401D01*
X51974035Y-30141830D01*
X52073903Y-29927663D01*
X52135063Y-29699408D01*
X52155659Y-29464000D01*
X52154032Y-29445409D01*
X52145024Y-29342444D01*
X52135063Y-29228592D01*
X52073903Y-29000337D01*
X51974035Y-28786171D01*
X51938608Y-28735576D01*
X51838496Y-28592600D01*
X51778065Y-28532169D01*
X51716567Y-28470671D01*
X51683084Y-28409351D01*
X51688068Y-28339659D01*
X51729939Y-28283725D01*
X51760915Y-28266810D01*
X51892331Y-28217796D01*
X52007546Y-28131546D01*
X52093796Y-28016331D01*
X52144091Y-27881483D01*
X52150500Y-27821873D01*
X52150499Y-26026128D01*
X52144091Y-25966517D01*
X52093796Y-25831669D01*
X52093795Y-25831668D01*
X52093793Y-25831664D01*
X52007547Y-25716455D01*
X52007544Y-25716452D01*
X51892335Y-25630206D01*
X51892328Y-25630202D01*
X51757482Y-25579908D01*
X51757483Y-25579908D01*
X51697883Y-25573501D01*
X51697881Y-25573500D01*
X51697873Y-25573500D01*
X51697864Y-25573500D01*
X49902129Y-25573500D01*
X49902123Y-25573501D01*
X49842516Y-25579908D01*
X49707671Y-25630202D01*
X49707664Y-25630206D01*
X49592455Y-25716452D01*
X49592452Y-25716455D01*
X49506206Y-25831664D01*
X49506202Y-25831671D01*
X49455908Y-25966517D01*
X49449501Y-26026116D01*
X49449501Y-26026123D01*
X49449500Y-26026135D01*
X49449500Y-27338546D01*
X49429815Y-27405585D01*
X49413181Y-27426227D01*
X46541208Y-30298199D01*
X46528951Y-30308020D01*
X46529134Y-30308241D01*
X46523122Y-30313214D01*
X46477098Y-30362223D01*
X46474391Y-30365016D01*
X46454889Y-30384517D01*
X46454875Y-30384534D01*
X46452407Y-30387715D01*
X46444843Y-30396570D01*
X46414937Y-30428418D01*
X46414936Y-30428420D01*
X46405284Y-30445976D01*
X46394610Y-30462226D01*
X46382329Y-30478061D01*
X46382324Y-30478068D01*
X46364975Y-30518158D01*
X46359838Y-30528644D01*
X46338803Y-30566906D01*
X46333822Y-30586307D01*
X46327521Y-30604710D01*
X46319562Y-30623102D01*
X46319561Y-30623105D01*
X46312728Y-30666243D01*
X46310360Y-30677674D01*
X46299501Y-30719971D01*
X46299500Y-30719982D01*
X46299500Y-30740016D01*
X46297973Y-30759415D01*
X46294840Y-30779194D01*
X46294840Y-30779195D01*
X46298950Y-30822674D01*
X46299500Y-30834343D01*
X46299500Y-35621000D01*
X46279815Y-35688039D01*
X46227011Y-35733794D01*
X46175500Y-35745000D01*
X46062500Y-35745000D01*
X46062500Y-36270500D01*
X46042815Y-36337539D01*
X45990011Y-36383294D01*
X45938500Y-36394500D01*
X45786500Y-36394500D01*
X45719461Y-36374815D01*
X45673706Y-36322011D01*
X45662500Y-36270500D01*
X45662500Y-35745000D01*
X45185675Y-35745000D01*
X45068371Y-35760442D01*
X45068366Y-35760444D01*
X44922414Y-35820899D01*
X44797075Y-35917075D01*
X44700899Y-36042413D01*
X44640444Y-36188368D01*
X44632987Y-36245000D01*
X44850697Y-36245000D01*
X44917736Y-36264685D01*
X44963491Y-36317489D01*
X44973435Y-36386647D01*
X44944410Y-36450203D01*
X44926184Y-36467376D01*
X44922160Y-36470463D01*
X44922159Y-36470464D01*
X44846544Y-36528485D01*
X44796715Y-36566720D01*
X44773875Y-36596487D01*
X44717447Y-36637690D01*
X44675500Y-36645000D01*
X44632990Y-36645000D01*
X44632988Y-36645001D01*
X44640441Y-36701622D01*
X44640445Y-36701634D01*
X44648837Y-36721895D01*
X44656304Y-36791364D01*
X44648838Y-36816794D01*
X44639956Y-36838238D01*
X44639955Y-36838239D01*
X44624500Y-36955638D01*
X44624500Y-37234363D01*
X44639953Y-37351753D01*
X44639957Y-37351765D01*
X44648566Y-37372550D01*
X44656033Y-37442019D01*
X44648566Y-37467450D01*
X44639957Y-37488234D01*
X44639955Y-37488239D01*
X44624500Y-37605638D01*
X44624500Y-37884363D01*
X44639953Y-38001753D01*
X44639957Y-38001765D01*
X44648566Y-38022550D01*
X44656033Y-38092019D01*
X44648566Y-38117450D01*
X44639957Y-38138234D01*
X44639955Y-38138239D01*
X44624500Y-38255638D01*
X44624500Y-38534363D01*
X44639953Y-38651753D01*
X44639957Y-38651765D01*
X44648566Y-38672550D01*
X44656033Y-38742019D01*
X44648566Y-38767450D01*
X44639957Y-38788234D01*
X44639955Y-38788239D01*
X44624500Y-38905638D01*
X44624500Y-39184363D01*
X44639953Y-39301753D01*
X44639957Y-39301765D01*
X44648566Y-39322550D01*
X44656033Y-39392019D01*
X44648566Y-39417450D01*
X44639957Y-39438234D01*
X44639955Y-39438239D01*
X44624500Y-39555638D01*
X44624500Y-39834363D01*
X44639953Y-39951753D01*
X44639957Y-39951765D01*
X44648566Y-39972550D01*
X44656033Y-40042019D01*
X44648566Y-40067450D01*
X44639957Y-40088234D01*
X44639955Y-40088239D01*
X44624500Y-40205638D01*
X44624500Y-40484363D01*
X44639953Y-40601753D01*
X44639957Y-40601765D01*
X44648566Y-40622550D01*
X44656033Y-40692019D01*
X44648566Y-40717450D01*
X44639957Y-40738234D01*
X44639955Y-40738239D01*
X44624500Y-40855638D01*
X44624500Y-41134363D01*
X44639953Y-41251753D01*
X44639957Y-41251765D01*
X44648566Y-41272550D01*
X44656033Y-41342019D01*
X44648566Y-41367450D01*
X44639957Y-41388234D01*
X44639955Y-41388239D01*
X44624500Y-41505638D01*
X44624500Y-41784363D01*
X44639953Y-41901753D01*
X44639956Y-41901762D01*
X44648837Y-41923203D01*
X44656304Y-41992673D01*
X44648838Y-42018103D01*
X44640443Y-42038370D01*
X44632987Y-42095000D01*
X44675500Y-42095000D01*
X44742539Y-42114685D01*
X44773875Y-42143513D01*
X44796715Y-42173279D01*
X44796716Y-42173280D01*
X44796718Y-42173282D01*
X44922159Y-42269536D01*
X44922160Y-42269536D01*
X44926184Y-42272624D01*
X44967386Y-42329052D01*
X44971541Y-42398798D01*
X44937329Y-42459719D01*
X44875611Y-42492471D01*
X44850697Y-42495000D01*
X44632990Y-42495000D01*
X44632988Y-42495001D01*
X44640442Y-42551627D01*
X44640444Y-42551633D01*
X44700899Y-42697585D01*
X44797075Y-42822924D01*
X44922413Y-42919100D01*
X45068365Y-42979554D01*
X45068369Y-42979555D01*
X45185676Y-42994999D01*
X45373520Y-42994999D01*
X45440560Y-43014683D01*
X45486315Y-43067487D01*
X45496259Y-43136645D01*
X45480909Y-43180998D01*
X45400820Y-43319718D01*
X45400818Y-43319722D01*
X45348417Y-43480998D01*
X45342326Y-43499744D01*
X45322540Y-43688000D01*
X45342326Y-43876256D01*
X45342327Y-43876259D01*
X45400818Y-44056277D01*
X45400820Y-44056281D01*
X45400821Y-44056284D01*
X45415246Y-44081269D01*
X45422597Y-44094001D01*
X45439068Y-44161902D01*
X45416216Y-44227928D01*
X45361294Y-44271118D01*
X45315210Y-44280000D01*
X45185676Y-44280000D01*
X45068371Y-44295442D01*
X45068366Y-44295444D01*
X44922414Y-44355899D01*
X44797075Y-44452075D01*
X44700899Y-44577413D01*
X44640444Y-44723368D01*
X44632987Y-44780000D01*
X44850697Y-44780000D01*
X44917736Y-44799685D01*
X44963491Y-44852489D01*
X44973435Y-44921647D01*
X44944410Y-44985203D01*
X44926184Y-45002376D01*
X44922160Y-45005463D01*
X44922159Y-45005464D01*
X44908947Y-45015602D01*
X44796715Y-45101720D01*
X44773875Y-45131487D01*
X44717447Y-45172690D01*
X44675500Y-45180000D01*
X44632990Y-45180000D01*
X44632988Y-45180001D01*
X44640441Y-45236622D01*
X44640445Y-45236634D01*
X44648837Y-45256895D01*
X44656304Y-45326364D01*
X44648838Y-45351794D01*
X44639956Y-45373238D01*
X44639955Y-45373239D01*
X44624500Y-45490638D01*
X44624500Y-45769363D01*
X44639953Y-45886753D01*
X44639957Y-45886765D01*
X44648566Y-45907550D01*
X44656033Y-45977019D01*
X44648566Y-46002450D01*
X44639957Y-46023234D01*
X44639955Y-46023239D01*
X44624500Y-46140638D01*
X44624500Y-46419363D01*
X44639953Y-46536753D01*
X44639957Y-46536765D01*
X44648566Y-46557550D01*
X44656033Y-46627019D01*
X44648566Y-46652450D01*
X44639957Y-46673234D01*
X44639955Y-46673239D01*
X44624500Y-46790638D01*
X44624500Y-47069363D01*
X44639953Y-47186753D01*
X44639957Y-47186765D01*
X44648566Y-47207550D01*
X44656033Y-47277019D01*
X44648566Y-47302450D01*
X44639957Y-47323234D01*
X44639955Y-47323239D01*
X44624500Y-47440638D01*
X44624500Y-47719363D01*
X44639953Y-47836753D01*
X44639957Y-47836765D01*
X44648566Y-47857550D01*
X44656033Y-47927019D01*
X44648566Y-47952450D01*
X44639957Y-47973234D01*
X44639955Y-47973239D01*
X44624500Y-48090638D01*
X44624500Y-48369363D01*
X44639953Y-48486753D01*
X44639957Y-48486765D01*
X44648566Y-48507550D01*
X44656033Y-48577019D01*
X44648566Y-48602450D01*
X44639957Y-48623234D01*
X44639955Y-48623239D01*
X44624501Y-48740629D01*
X44624500Y-48740645D01*
X44624500Y-48839555D01*
X44604815Y-48906594D01*
X44588052Y-48926109D01*
X44588205Y-48926244D01*
X44585505Y-48929305D01*
X44584606Y-48930122D01*
X44582513Y-48932560D01*
X44577225Y-48937223D01*
X44577037Y-48937010D01*
X44573906Y-48939858D01*
X44574101Y-48940065D01*
X44568415Y-48945404D01*
X44525540Y-48997230D01*
X44523013Y-49000189D01*
X44478547Y-49050626D01*
X44474169Y-49057069D01*
X44473935Y-49056910D01*
X44471618Y-49060437D01*
X44471857Y-49060589D01*
X44467679Y-49067173D01*
X44439042Y-49128026D01*
X44437330Y-49131520D01*
X44406802Y-49191434D01*
X44404161Y-49198772D01*
X44403894Y-49198675D01*
X44402526Y-49202670D01*
X44402796Y-49202758D01*
X44400386Y-49210175D01*
X44387788Y-49276214D01*
X44386999Y-49280025D01*
X44372327Y-49345666D01*
X44371594Y-49353428D01*
X44371313Y-49353401D01*
X44370981Y-49357613D01*
X44371263Y-49357631D01*
X44370773Y-49365413D01*
X43065500Y-49365413D01*
X43065500Y-42827427D01*
X43067531Y-42805075D01*
X43067534Y-42805057D01*
X43069358Y-42795106D01*
X43065726Y-42735065D01*
X43065500Y-42727578D01*
X43065500Y-37900042D01*
X43065726Y-37892554D01*
X43069358Y-37832516D01*
X43058514Y-37773343D01*
X43057387Y-37765937D01*
X43056888Y-37761830D01*
X43050140Y-37706250D01*
X43046548Y-37696778D01*
X43040521Y-37675156D01*
X43038695Y-37665193D01*
X43038693Y-37665185D01*
X43014008Y-37610341D01*
X43011153Y-37603451D01*
X42989818Y-37547192D01*
X42984063Y-37538855D01*
X42973036Y-37519304D01*
X42968879Y-37510068D01*
X42968878Y-37510065D01*
X42952393Y-37489024D01*
X42931785Y-37462719D01*
X42927355Y-37456699D01*
X42893183Y-37407193D01*
X42848153Y-37367300D01*
X42842715Y-37362180D01*
X41447818Y-35967283D01*
X41442683Y-35961828D01*
X41402807Y-35916816D01*
X41402802Y-35916812D01*
X41353316Y-35882655D01*
X41347281Y-35878215D01*
X41299938Y-35841124D01*
X41299933Y-35841120D01*
X41290691Y-35836961D01*
X41271144Y-35825936D01*
X41269535Y-35824826D01*
X41262808Y-35820182D01*
X41206572Y-35798854D01*
X41199668Y-35795994D01*
X41144810Y-35771305D01*
X41144808Y-35771304D01*
X41134824Y-35769474D01*
X41113221Y-35763451D01*
X41103752Y-35759860D01*
X41103749Y-35759859D01*
X41044049Y-35752610D01*
X41036648Y-35751483D01*
X40977487Y-35740642D01*
X40977481Y-35740642D01*
X40917445Y-35744274D01*
X40909957Y-35744500D01*
X40479019Y-35744500D01*
X40411980Y-35724815D01*
X40391338Y-35708181D01*
X40050440Y-35367283D01*
X40045305Y-35361828D01*
X40005429Y-35316816D01*
X40005424Y-35316812D01*
X39955938Y-35282655D01*
X39949903Y-35278215D01*
X39902560Y-35241124D01*
X39902555Y-35241120D01*
X39893313Y-35236961D01*
X39873766Y-35225936D01*
X39867817Y-35221830D01*
X39865430Y-35220182D01*
X39809194Y-35198854D01*
X39802290Y-35195994D01*
X39747432Y-35171305D01*
X39747430Y-35171304D01*
X39737446Y-35169474D01*
X39715843Y-35163451D01*
X39706374Y-35159860D01*
X39706371Y-35159859D01*
X39646671Y-35152610D01*
X39639270Y-35151483D01*
X39580109Y-35140642D01*
X39580103Y-35140642D01*
X39520067Y-35144274D01*
X39512579Y-35144500D01*
X35119910Y-35144500D01*
X35112423Y-35144274D01*
X35052395Y-35140643D01*
X35052391Y-35140643D01*
X35042429Y-35142469D01*
X35020078Y-35144500D01*
X33849910Y-35144500D01*
X33842423Y-35144274D01*
X33782396Y-35140643D01*
X33782389Y-35140643D01*
X33723243Y-35151481D01*
X33715843Y-35152608D01*
X33656125Y-35159860D01*
X33646642Y-35163456D01*
X33625038Y-35169478D01*
X33623535Y-35169754D01*
X33615065Y-35171306D01*
X33560229Y-35195986D01*
X33553313Y-35198851D01*
X33524701Y-35209702D01*
X33497070Y-35220182D01*
X33497068Y-35220183D01*
X33497066Y-35220184D01*
X33497061Y-35220186D01*
X33488722Y-35225942D01*
X33469190Y-35236959D01*
X33459946Y-35241120D01*
X33459944Y-35241121D01*
X33459943Y-35241122D01*
X33431580Y-35263342D01*
X33412597Y-35278214D01*
X33406569Y-35282649D01*
X33357068Y-35316819D01*
X33317183Y-35361838D01*
X33312051Y-35367290D01*
X32971162Y-35708181D01*
X32909839Y-35741666D01*
X32883481Y-35744500D01*
X31034500Y-35744500D01*
X30967461Y-35724815D01*
X30921706Y-35672011D01*
X30910500Y-35620500D01*
X30910500Y-29277737D01*
X30912224Y-29262123D01*
X30911938Y-29262096D01*
X30912672Y-29254333D01*
X30910561Y-29187144D01*
X30910500Y-29183250D01*
X30910500Y-29155651D01*
X30910500Y-29155650D01*
X30909997Y-29151670D01*
X30909080Y-29140021D01*
X30907709Y-29096373D01*
X30902122Y-29077144D01*
X30898174Y-29058084D01*
X30895664Y-29038208D01*
X30879585Y-28997597D01*
X30875804Y-28986552D01*
X30863619Y-28944612D01*
X30853418Y-28927363D01*
X30844860Y-28909894D01*
X30837486Y-28891268D01*
X30837483Y-28891264D01*
X30837483Y-28891263D01*
X30811816Y-28855935D01*
X30805403Y-28846172D01*
X30783172Y-28808583D01*
X30783170Y-28808579D01*
X30783166Y-28808575D01*
X30783163Y-28808571D01*
X30769005Y-28794413D01*
X30756370Y-28779620D01*
X30744593Y-28763412D01*
X30710945Y-28735576D01*
X30702304Y-28727713D01*
X29100237Y-27125646D01*
X29066752Y-27064323D01*
X29068142Y-27005876D01*
X29095063Y-26905408D01*
X29115659Y-26670000D01*
X29095063Y-26434592D01*
X29033903Y-26206337D01*
X28934035Y-25992171D01*
X28916071Y-25966516D01*
X28798496Y-25798600D01*
X28798495Y-25798599D01*
X28676179Y-25676283D01*
X28642696Y-25614963D01*
X28647680Y-25545271D01*
X28689551Y-25489337D01*
X28720529Y-25472422D01*
X28852086Y-25423354D01*
X28852093Y-25423350D01*
X28967187Y-25337190D01*
X28967190Y-25337187D01*
X29053350Y-25222093D01*
X29053354Y-25222086D01*
X29103596Y-25087379D01*
X29103598Y-25087372D01*
X29109999Y-25027844D01*
X29110000Y-25027827D01*
X29110000Y-24380000D01*
X28193686Y-24380000D01*
X28219493Y-24339844D01*
X28260000Y-24201889D01*
X28260000Y-24058111D01*
X28219493Y-23920156D01*
X28193686Y-23880000D01*
X29110000Y-23880000D01*
X29110000Y-23232172D01*
X29109999Y-23232155D01*
X29103598Y-23172627D01*
X29103596Y-23172620D01*
X29053354Y-23037913D01*
X29053350Y-23037906D01*
X28967190Y-22922812D01*
X28967187Y-22922809D01*
X28852093Y-22836649D01*
X28852086Y-22836645D01*
X28717379Y-22786403D01*
X28717372Y-22786401D01*
X28657844Y-22780000D01*
X28010000Y-22780000D01*
X28010000Y-23694498D01*
X27902315Y-23645320D01*
X27795763Y-23630000D01*
X27724237Y-23630000D01*
X27617685Y-23645320D01*
X27510000Y-23694498D01*
X27510000Y-22780000D01*
X26862155Y-22780000D01*
X26802627Y-22786401D01*
X26802620Y-22786403D01*
X26667913Y-22836645D01*
X26667906Y-22836649D01*
X26552812Y-22922809D01*
X26552809Y-22922812D01*
X26466649Y-23037906D01*
X26466645Y-23037913D01*
X26416403Y-23172620D01*
X26416401Y-23172627D01*
X26410000Y-23232155D01*
X26410000Y-23880000D01*
X27326314Y-23880000D01*
X27300507Y-23920156D01*
X27260000Y-24058111D01*
X27260000Y-24201889D01*
X27300507Y-24339844D01*
X27326314Y-24380000D01*
X26410000Y-24380000D01*
X26410000Y-25027844D01*
X26416401Y-25087372D01*
X26416403Y-25087379D01*
X26466645Y-25222086D01*
X26466649Y-25222093D01*
X26552809Y-25337187D01*
X26552812Y-25337190D01*
X26667906Y-25423350D01*
X26667913Y-25423354D01*
X26799470Y-25472421D01*
X26855403Y-25514292D01*
X26879821Y-25579756D01*
X26864970Y-25648029D01*
X26843819Y-25676284D01*
X26721503Y-25798600D01*
X26585965Y-25992169D01*
X26585964Y-25992171D01*
X26486098Y-26206335D01*
X26486094Y-26206344D01*
X26424938Y-26434586D01*
X26424936Y-26434596D01*
X26404341Y-26669999D01*
X26404341Y-26670000D01*
X26424936Y-26905403D01*
X26424938Y-26905413D01*
X26486094Y-27133655D01*
X26486096Y-27133659D01*
X26486097Y-27133663D01*
X26581636Y-27338546D01*
X26585965Y-27347830D01*
X26585967Y-27347834D01*
X26721501Y-27541395D01*
X26721506Y-27541402D01*
X26888597Y-27708493D01*
X26888603Y-27708498D01*
X27074158Y-27838425D01*
X27117783Y-27893002D01*
X27124977Y-27962500D01*
X27093454Y-28024855D01*
X27074158Y-28041575D01*
X26888597Y-28171505D01*
X26721505Y-28338597D01*
X26585965Y-28532169D01*
X26585964Y-28532171D01*
X26486098Y-28746335D01*
X26486094Y-28746344D01*
X26424938Y-28974586D01*
X26424936Y-28974596D01*
X26404341Y-29209999D01*
X26404341Y-29210000D01*
X26424936Y-29445403D01*
X26424938Y-29445413D01*
X26486094Y-29673655D01*
X26486096Y-29673659D01*
X26486097Y-29673663D01*
X26544950Y-29799873D01*
X26585965Y-29887830D01*
X26585967Y-29887834D01*
X26721501Y-30081395D01*
X26721506Y-30081402D01*
X26888597Y-30248493D01*
X26888603Y-30248498D01*
X27074158Y-30378425D01*
X27117783Y-30433002D01*
X27124977Y-30502500D01*
X27093454Y-30564855D01*
X27074158Y-30581575D01*
X26888597Y-30711505D01*
X26721505Y-30878597D01*
X26585965Y-31072169D01*
X26585964Y-31072171D01*
X26486098Y-31286335D01*
X26486094Y-31286344D01*
X26424938Y-31514586D01*
X26424936Y-31514596D01*
X26404341Y-31749999D01*
X26404341Y-31750000D01*
X26424936Y-31985403D01*
X26424938Y-31985413D01*
X26486094Y-32213655D01*
X26486096Y-32213659D01*
X26486097Y-32213663D01*
X26533309Y-32314909D01*
X26585965Y-32427830D01*
X26585967Y-32427834D01*
X26721501Y-32621395D01*
X26721506Y-32621402D01*
X26888597Y-32788493D01*
X26888603Y-32788498D01*
X27074158Y-32918425D01*
X27117783Y-32973002D01*
X27124977Y-33042500D01*
X27093454Y-33104855D01*
X27074158Y-33121575D01*
X26888597Y-33251505D01*
X26721505Y-33418597D01*
X26585965Y-33612169D01*
X26585964Y-33612171D01*
X26486098Y-33826335D01*
X26486094Y-33826344D01*
X26424938Y-34054586D01*
X26424936Y-34054596D01*
X26404341Y-34289999D01*
X26404341Y-34290000D01*
X26424936Y-34525403D01*
X26424938Y-34525413D01*
X26486094Y-34753655D01*
X26486096Y-34753659D01*
X26486097Y-34753663D01*
X26585965Y-34967830D01*
X26585967Y-34967834D01*
X26694281Y-35122521D01*
X26715349Y-35152610D01*
X26721501Y-35161395D01*
X26721506Y-35161402D01*
X26888597Y-35328493D01*
X26888603Y-35328498D01*
X27074158Y-35458425D01*
X27117783Y-35513002D01*
X27124977Y-35582500D01*
X27093454Y-35644855D01*
X27074158Y-35661575D01*
X26888597Y-35791505D01*
X26721505Y-35958597D01*
X26585965Y-36152169D01*
X26585964Y-36152171D01*
X26486098Y-36366335D01*
X26486094Y-36366344D01*
X26424938Y-36594586D01*
X26424936Y-36594596D01*
X26404341Y-36829999D01*
X26404341Y-36830000D01*
X26424936Y-37065403D01*
X26424938Y-37065413D01*
X26486094Y-37293655D01*
X26486096Y-37293659D01*
X26486097Y-37293663D01*
X26567138Y-37467455D01*
X26585965Y-37507830D01*
X26585967Y-37507834D01*
X26721501Y-37701395D01*
X26721506Y-37701402D01*
X26888597Y-37868493D01*
X26888603Y-37868498D01*
X27074158Y-37998425D01*
X27117783Y-38053002D01*
X27124977Y-38122500D01*
X27093454Y-38184855D01*
X27074158Y-38201575D01*
X26888597Y-38331505D01*
X26721505Y-38498597D01*
X26585965Y-38692169D01*
X26585964Y-38692171D01*
X26541167Y-38788239D01*
X26486423Y-38905639D01*
X26486098Y-38906335D01*
X26486094Y-38906344D01*
X26424938Y-39134586D01*
X26424936Y-39134596D01*
X26404341Y-39369999D01*
X26404341Y-39370000D01*
X26424936Y-39605403D01*
X26424938Y-39605413D01*
X26486094Y-39833655D01*
X26486096Y-39833659D01*
X26486097Y-39833663D01*
X26541168Y-39951762D01*
X26585965Y-40047830D01*
X26585967Y-40047834D01*
X26721501Y-40241395D01*
X26721506Y-40241402D01*
X26888597Y-40408493D01*
X26888603Y-40408498D01*
X27074158Y-40538425D01*
X27117783Y-40593002D01*
X27124977Y-40662500D01*
X27093454Y-40724855D01*
X27074158Y-40741575D01*
X26888597Y-40871505D01*
X26721505Y-41038597D01*
X26585965Y-41232169D01*
X26585964Y-41232171D01*
X26486098Y-41446335D01*
X26486094Y-41446344D01*
X26424938Y-41674586D01*
X26424936Y-41674596D01*
X26404341Y-41909999D01*
X26404341Y-41910000D01*
X26424936Y-42145403D01*
X26424938Y-42145413D01*
X26486094Y-42373655D01*
X26486096Y-42373659D01*
X26486097Y-42373663D01*
X26569142Y-42551753D01*
X26585965Y-42587830D01*
X26585967Y-42587834D01*
X26670239Y-42708186D01*
X26712072Y-42767930D01*
X26721501Y-42781395D01*
X26721506Y-42781402D01*
X26888597Y-42948493D01*
X26888603Y-42948498D01*
X27074158Y-43078425D01*
X27117783Y-43133002D01*
X27124977Y-43202500D01*
X27093454Y-43264855D01*
X27074158Y-43281575D01*
X26888597Y-43411505D01*
X26721505Y-43578597D01*
X26585965Y-43772169D01*
X26585964Y-43772171D01*
X26486098Y-43986335D01*
X26486094Y-43986344D01*
X26424938Y-44214586D01*
X26424936Y-44214596D01*
X26404341Y-44449999D01*
X26404341Y-44450000D01*
X26424936Y-44685403D01*
X26424938Y-44685413D01*
X26486094Y-44913655D01*
X26486096Y-44913659D01*
X26486097Y-44913663D01*
X26527785Y-45003062D01*
X26585965Y-45127830D01*
X26585967Y-45127834D01*
X26691542Y-45278610D01*
X26712147Y-45308037D01*
X26721501Y-45321395D01*
X26721506Y-45321402D01*
X26888597Y-45488493D01*
X26888603Y-45488498D01*
X27074158Y-45618425D01*
X27117783Y-45673002D01*
X27124977Y-45742500D01*
X27093454Y-45804855D01*
X27074158Y-45821575D01*
X26888597Y-45951505D01*
X26721505Y-46118597D01*
X26585965Y-46312169D01*
X26585964Y-46312171D01*
X26486098Y-46526335D01*
X26486094Y-46526344D01*
X26424938Y-46754586D01*
X26424936Y-46754596D01*
X26404341Y-46989999D01*
X26404341Y-46990000D01*
X26424936Y-47225403D01*
X26424938Y-47225413D01*
X26486094Y-47453655D01*
X26486096Y-47453659D01*
X26486097Y-47453663D01*
X26533585Y-47555500D01*
X26585965Y-47667830D01*
X26585967Y-47667834D01*
X26694281Y-47822521D01*
X26718808Y-47857550D01*
X26721501Y-47861395D01*
X26721506Y-47861402D01*
X26888597Y-48028493D01*
X26888603Y-48028498D01*
X27074158Y-48158425D01*
X27117783Y-48213002D01*
X27124977Y-48282500D01*
X27093454Y-48344855D01*
X27074158Y-48361575D01*
X26888597Y-48491505D01*
X26721505Y-48658597D01*
X26585965Y-48852169D01*
X26585964Y-48852171D01*
X26486098Y-49066335D01*
X26486094Y-49066344D01*
X26424938Y-49294586D01*
X26424936Y-49294596D01*
X26404341Y-49529999D01*
X26404341Y-49530000D01*
X26424936Y-49765403D01*
X26424938Y-49765413D01*
X26486094Y-49993655D01*
X26486096Y-49993659D01*
X26486097Y-49993663D01*
X26508003Y-50040640D01*
X26585965Y-50207830D01*
X26585967Y-50207834D01*
X26658077Y-50310817D01*
X26702879Y-50374801D01*
X26721501Y-50401395D01*
X26721506Y-50401402D01*
X26888597Y-50568493D01*
X26888603Y-50568498D01*
X27074158Y-50698425D01*
X27117783Y-50753002D01*
X27124977Y-50822500D01*
X27093454Y-50884855D01*
X27074158Y-50901575D01*
X26888597Y-51031505D01*
X26721505Y-51198597D01*
X26585965Y-51392169D01*
X26585964Y-51392171D01*
X26486098Y-51606335D01*
X26486094Y-51606344D01*
X26424938Y-51834586D01*
X26424936Y-51834596D01*
X26404341Y-52069999D01*
X26404341Y-52070000D01*
X26424936Y-52305403D01*
X26424938Y-52305413D01*
X26486094Y-52533655D01*
X26486096Y-52533659D01*
X26486097Y-52533663D01*
X26549597Y-52669839D01*
X26585965Y-52747830D01*
X26585967Y-52747834D01*
X26721501Y-52941395D01*
X26721506Y-52941402D01*
X26888597Y-53108493D01*
X26888603Y-53108498D01*
X27074158Y-53238425D01*
X27117783Y-53293002D01*
X27124977Y-53362500D01*
X27093454Y-53424855D01*
X27074158Y-53441575D01*
X26888597Y-53571505D01*
X26721505Y-53738597D01*
X26585965Y-53932169D01*
X26585964Y-53932171D01*
X26486098Y-54146335D01*
X26486094Y-54146344D01*
X26424938Y-54374586D01*
X26424936Y-54374596D01*
X26404341Y-54609999D01*
X26404341Y-54610000D01*
X26424936Y-54845403D01*
X26424938Y-54845413D01*
X26486094Y-55073655D01*
X26486096Y-55073659D01*
X26486097Y-55073663D01*
X26551521Y-55213965D01*
X26585965Y-55287830D01*
X26585967Y-55287834D01*
X26721501Y-55481395D01*
X26721506Y-55481402D01*
X26888597Y-55648493D01*
X26888603Y-55648498D01*
X27074158Y-55778425D01*
X27117783Y-55833002D01*
X27124977Y-55902500D01*
X27093454Y-55964855D01*
X27074158Y-55981575D01*
X26888597Y-56111505D01*
X26721505Y-56278597D01*
X26585965Y-56472169D01*
X26585964Y-56472171D01*
X26486098Y-56686335D01*
X26486094Y-56686344D01*
X26424938Y-56914586D01*
X26424936Y-56914596D01*
X26404341Y-57149999D01*
X26404341Y-57150000D01*
X26424936Y-57385403D01*
X26424938Y-57385413D01*
X26486094Y-57613655D01*
X26486096Y-57613659D01*
X26486097Y-57613663D01*
X26551521Y-57753965D01*
X26585965Y-57827830D01*
X26585967Y-57827834D01*
X26721501Y-58021395D01*
X26721506Y-58021402D01*
X26888597Y-58188493D01*
X26888603Y-58188498D01*
X27074158Y-58318425D01*
X27117783Y-58373002D01*
X27124977Y-58442500D01*
X27093454Y-58504855D01*
X27074158Y-58521575D01*
X26888597Y-58651505D01*
X26721505Y-58818597D01*
X26585965Y-59012169D01*
X26585964Y-59012171D01*
X26486098Y-59226335D01*
X26486094Y-59226344D01*
X26424938Y-59454586D01*
X26424936Y-59454596D01*
X26404341Y-59689999D01*
X26404341Y-59690000D01*
X26424936Y-59925403D01*
X26424938Y-59925413D01*
X26486094Y-60153655D01*
X26486096Y-60153659D01*
X26486097Y-60153663D01*
X26555634Y-60302785D01*
X26585965Y-60367830D01*
X26585967Y-60367834D01*
X26721501Y-60561395D01*
X26721506Y-60561402D01*
X26888597Y-60728493D01*
X26888603Y-60728498D01*
X27074158Y-60858425D01*
X27117783Y-60913002D01*
X27124977Y-60982500D01*
X27093454Y-61044855D01*
X27074158Y-61061575D01*
X26888597Y-61191505D01*
X26721505Y-61358597D01*
X26585965Y-61552169D01*
X26585964Y-61552171D01*
X26486098Y-61766335D01*
X26486094Y-61766344D01*
X26424938Y-61994586D01*
X26424936Y-61994596D01*
X26404341Y-62229999D01*
X26404341Y-62230000D01*
X26424936Y-62465403D01*
X26424938Y-62465413D01*
X26486094Y-62693655D01*
X26486096Y-62693659D01*
X26486097Y-62693663D01*
X26551521Y-62833965D01*
X26585965Y-62907830D01*
X26585967Y-62907834D01*
X26721501Y-63101395D01*
X26721506Y-63101402D01*
X26888597Y-63268493D01*
X26888603Y-63268498D01*
X27074158Y-63398425D01*
X27117783Y-63453002D01*
X27124977Y-63522500D01*
X27093454Y-63584855D01*
X27074158Y-63601575D01*
X26888597Y-63731505D01*
X26721505Y-63898597D01*
X26585965Y-64092169D01*
X26585964Y-64092171D01*
X26486098Y-64306335D01*
X26486094Y-64306344D01*
X26424938Y-64534586D01*
X26424936Y-64534596D01*
X26404341Y-64769999D01*
X26404341Y-64770000D01*
X26424936Y-65005403D01*
X26424938Y-65005413D01*
X26486094Y-65233655D01*
X26486096Y-65233659D01*
X26486097Y-65233663D01*
X26551521Y-65373965D01*
X26585965Y-65447830D01*
X26585967Y-65447834D01*
X26721501Y-65641395D01*
X26721506Y-65641402D01*
X26888597Y-65808493D01*
X26888603Y-65808498D01*
X27074158Y-65938425D01*
X27117783Y-65993002D01*
X27124977Y-66062500D01*
X27093454Y-66124855D01*
X27074158Y-66141575D01*
X26888597Y-66271505D01*
X26721505Y-66438597D01*
X26585965Y-66632169D01*
X26585964Y-66632171D01*
X26486098Y-66846335D01*
X26486094Y-66846344D01*
X26424938Y-67074586D01*
X26424936Y-67074596D01*
X26404341Y-67309999D01*
X26404341Y-67310000D01*
X25326500Y-67310000D01*
X25326500Y-18796000D01*
X25758422Y-18796000D01*
X25778722Y-19183339D01*
X25839397Y-19566427D01*
X25839397Y-19566429D01*
X25939788Y-19941094D01*
X26078787Y-20303197D01*
X26254877Y-20648793D01*
X26466122Y-20974082D01*
X26466124Y-20974084D01*
X26710219Y-21275516D01*
X26984484Y-21549781D01*
X26984488Y-21549784D01*
X27285917Y-21793877D01*
X27611206Y-22005122D01*
X27611211Y-22005125D01*
X27956806Y-22181214D01*
X28318913Y-22320214D01*
X28693567Y-22420602D01*
X29076662Y-22481278D01*
X29442576Y-22500455D01*
X29463999Y-22501578D01*
X29464000Y-22501578D01*
X29464001Y-22501578D01*
X29484301Y-22500514D01*
X29851338Y-22481278D01*
X30234433Y-22420602D01*
X30609087Y-22320214D01*
X30971194Y-22181214D01*
X31316789Y-22005125D01*
X31642084Y-21793876D01*
X31943516Y-21549781D01*
X32217781Y-21275516D01*
X32461876Y-20974084D01*
X32673125Y-20648789D01*
X32849214Y-20303194D01*
X32988214Y-19941087D01*
X33088602Y-19566433D01*
X33149278Y-19183338D01*
X33169578Y-18796000D01*
X33149278Y-18408662D01*
X33088602Y-18025567D01*
X32988214Y-17650913D01*
X32849214Y-17288806D01*
X32673125Y-16943211D01*
X32461876Y-16617916D01*
X32217781Y-16316484D01*
X31943516Y-16042219D01*
X31642084Y-15798124D01*
X31642082Y-15798122D01*
X31316793Y-15586877D01*
X30971197Y-15410787D01*
X30609094Y-15271788D01*
X30609087Y-15271786D01*
X30234433Y-15171398D01*
X30234429Y-15171397D01*
X30234428Y-15171397D01*
X29851339Y-15110722D01*
X29464001Y-15090422D01*
X29463999Y-15090422D01*
X29076660Y-15110722D01*
X28693572Y-15171397D01*
X28693570Y-15171397D01*
X28318905Y-15271788D01*
X27956802Y-15410787D01*
X27611206Y-15586877D01*
X27285917Y-15798122D01*
X26984488Y-16042215D01*
X26984480Y-16042222D01*
X26710222Y-16316480D01*
X26710215Y-16316488D01*
X26466122Y-16617917D01*
X26254877Y-16943206D01*
X26078787Y-17288802D01*
X25939788Y-17650905D01*
X25839397Y-18025570D01*
X25839397Y-18025572D01*
X25778722Y-18408660D01*
X25758422Y-18795999D01*
X25758422Y-18796000D01*
X25326500Y-18796000D01*
X25326500Y-14858227D01*
X25346185Y-14791188D01*
X25398989Y-14745433D01*
X25450500Y-14734227D01*
X53215500Y-14734227D01*
X53282539Y-14753912D01*
G37*
G04 #@! TD.AperFunction*
M02*
