G04 #@! TF.GenerationSoftware,KiCad,Pcbnew,7.0.10-7.0.10~ubuntu22.04.1*
G04 #@! TF.CreationDate,2024-03-22T17:45:40+01:00*
G04 #@! TF.ProjectId,dac-base-board,6461632d-6261-4736-952d-626f6172642e,v0.1*
G04 #@! TF.SameCoordinates,Original*
G04 #@! TF.FileFunction,Legend,Top*
G04 #@! TF.FilePolarity,Positive*
%FSLAX46Y46*%
G04 Gerber Fmt 4.6, Leading zero omitted, Abs format (unit mm)*
G04 Created by KiCad (PCBNEW 7.0.10-7.0.10~ubuntu22.04.1) date 2024-03-22 17:45:40*
%MOMM*%
%LPD*%
G01*
G04 APERTURE LIST*
%ADD10C,0.150000*%
%ADD11C,0.300000*%
%ADD12C,0.120000*%
G04 APERTURE END LIST*
D10*
X47940744Y-44194057D02*
X48540744Y-44194057D01*
X48540744Y-44194057D02*
X48155030Y-45094057D01*
X48197887Y-26414057D02*
X48283601Y-26414057D01*
X48283601Y-26414057D02*
X48369315Y-26456914D01*
X48369315Y-26456914D02*
X48412173Y-26499771D01*
X48412173Y-26499771D02*
X48455030Y-26585485D01*
X48455030Y-26585485D02*
X48497887Y-26756914D01*
X48497887Y-26756914D02*
X48497887Y-26971200D01*
X48497887Y-26971200D02*
X48455030Y-27142628D01*
X48455030Y-27142628D02*
X48412173Y-27228342D01*
X48412173Y-27228342D02*
X48369315Y-27271200D01*
X48369315Y-27271200D02*
X48283601Y-27314057D01*
X48283601Y-27314057D02*
X48197887Y-27314057D01*
X48197887Y-27314057D02*
X48112173Y-27271200D01*
X48112173Y-27271200D02*
X48069315Y-27228342D01*
X48069315Y-27228342D02*
X48026458Y-27142628D01*
X48026458Y-27142628D02*
X47983601Y-26971200D01*
X47983601Y-26971200D02*
X47983601Y-26756914D01*
X47983601Y-26756914D02*
X48026458Y-26585485D01*
X48026458Y-26585485D02*
X48069315Y-26499771D01*
X48069315Y-26499771D02*
X48112173Y-26456914D01*
X48112173Y-26456914D02*
X48197887Y-26414057D01*
X29948398Y-67054057D02*
X30119826Y-67054057D01*
X30119826Y-67054057D02*
X30205541Y-67096914D01*
X30205541Y-67096914D02*
X30291255Y-67182628D01*
X30291255Y-67182628D02*
X30334112Y-67354057D01*
X30334112Y-67354057D02*
X30334112Y-67654057D01*
X30334112Y-67654057D02*
X30291255Y-67825485D01*
X30291255Y-67825485D02*
X30205541Y-67911200D01*
X30205541Y-67911200D02*
X30119826Y-67954057D01*
X30119826Y-67954057D02*
X29948398Y-67954057D01*
X29948398Y-67954057D02*
X29862684Y-67911200D01*
X29862684Y-67911200D02*
X29776969Y-67825485D01*
X29776969Y-67825485D02*
X29734112Y-67654057D01*
X29734112Y-67654057D02*
X29734112Y-67354057D01*
X29734112Y-67354057D02*
X29776969Y-67182628D01*
X29776969Y-67182628D02*
X29862684Y-67096914D01*
X29862684Y-67096914D02*
X29948398Y-67054057D01*
X31105541Y-67354057D02*
X31105541Y-67954057D01*
X30719826Y-67354057D02*
X30719826Y-67825485D01*
X30719826Y-67825485D02*
X30762683Y-67911200D01*
X30762683Y-67911200D02*
X30848398Y-67954057D01*
X30848398Y-67954057D02*
X30976969Y-67954057D01*
X30976969Y-67954057D02*
X31062683Y-67911200D01*
X31062683Y-67911200D02*
X31105541Y-67868342D01*
X31405541Y-67354057D02*
X31748398Y-67354057D01*
X31534112Y-67054057D02*
X31534112Y-67825485D01*
X31534112Y-67825485D02*
X31576969Y-67911200D01*
X31576969Y-67911200D02*
X31662684Y-67954057D01*
X31662684Y-67954057D02*
X31748398Y-67954057D01*
X30248398Y-23408914D02*
X30162684Y-23366057D01*
X30162684Y-23366057D02*
X30034112Y-23366057D01*
X30034112Y-23366057D02*
X29905541Y-23408914D01*
X29905541Y-23408914D02*
X29819826Y-23494628D01*
X29819826Y-23494628D02*
X29776969Y-23580342D01*
X29776969Y-23580342D02*
X29734112Y-23751771D01*
X29734112Y-23751771D02*
X29734112Y-23880342D01*
X29734112Y-23880342D02*
X29776969Y-24051771D01*
X29776969Y-24051771D02*
X29819826Y-24137485D01*
X29819826Y-24137485D02*
X29905541Y-24223200D01*
X29905541Y-24223200D02*
X30034112Y-24266057D01*
X30034112Y-24266057D02*
X30119826Y-24266057D01*
X30119826Y-24266057D02*
X30248398Y-24223200D01*
X30248398Y-24223200D02*
X30291255Y-24180342D01*
X30291255Y-24180342D02*
X30291255Y-23880342D01*
X30291255Y-23880342D02*
X30119826Y-23880342D01*
X30676969Y-24266057D02*
X30676969Y-23366057D01*
X30676969Y-23366057D02*
X31191255Y-24266057D01*
X31191255Y-24266057D02*
X31191255Y-23366057D01*
X31619826Y-24266057D02*
X31619826Y-23366057D01*
X31619826Y-23366057D02*
X31834112Y-23366057D01*
X31834112Y-23366057D02*
X31962683Y-23408914D01*
X31962683Y-23408914D02*
X32048398Y-23494628D01*
X32048398Y-23494628D02*
X32091255Y-23580342D01*
X32091255Y-23580342D02*
X32134112Y-23751771D01*
X32134112Y-23751771D02*
X32134112Y-23880342D01*
X32134112Y-23880342D02*
X32091255Y-24051771D01*
X32091255Y-24051771D02*
X32048398Y-24137485D01*
X32048398Y-24137485D02*
X31962683Y-24223200D01*
X31962683Y-24223200D02*
X31834112Y-24266057D01*
X31834112Y-24266057D02*
X31619826Y-24266057D01*
X42405541Y-71847152D02*
X42643636Y-72513819D01*
X42643636Y-72513819D02*
X42881731Y-71847152D01*
X43453160Y-71513819D02*
X43548398Y-71513819D01*
X43548398Y-71513819D02*
X43643636Y-71561438D01*
X43643636Y-71561438D02*
X43691255Y-71609057D01*
X43691255Y-71609057D02*
X43738874Y-71704295D01*
X43738874Y-71704295D02*
X43786493Y-71894771D01*
X43786493Y-71894771D02*
X43786493Y-72132866D01*
X43786493Y-72132866D02*
X43738874Y-72323342D01*
X43738874Y-72323342D02*
X43691255Y-72418580D01*
X43691255Y-72418580D02*
X43643636Y-72466200D01*
X43643636Y-72466200D02*
X43548398Y-72513819D01*
X43548398Y-72513819D02*
X43453160Y-72513819D01*
X43453160Y-72513819D02*
X43357922Y-72466200D01*
X43357922Y-72466200D02*
X43310303Y-72418580D01*
X43310303Y-72418580D02*
X43262684Y-72323342D01*
X43262684Y-72323342D02*
X43215065Y-72132866D01*
X43215065Y-72132866D02*
X43215065Y-71894771D01*
X43215065Y-71894771D02*
X43262684Y-71704295D01*
X43262684Y-71704295D02*
X43310303Y-71609057D01*
X43310303Y-71609057D02*
X43357922Y-71561438D01*
X43357922Y-71561438D02*
X43453160Y-71513819D01*
X44215065Y-72418580D02*
X44262684Y-72466200D01*
X44262684Y-72466200D02*
X44215065Y-72513819D01*
X44215065Y-72513819D02*
X44167446Y-72466200D01*
X44167446Y-72466200D02*
X44215065Y-72418580D01*
X44215065Y-72418580D02*
X44215065Y-72513819D01*
X45215064Y-72513819D02*
X44643636Y-72513819D01*
X44929350Y-72513819D02*
X44929350Y-71513819D01*
X44929350Y-71513819D02*
X44834112Y-71656676D01*
X44834112Y-71656676D02*
X44738874Y-71751914D01*
X44738874Y-71751914D02*
X44643636Y-71799533D01*
X46032969Y-67446057D02*
X46032969Y-66546057D01*
X46032969Y-66546057D02*
X46375826Y-66546057D01*
X46375826Y-66546057D02*
X46461541Y-66588914D01*
X46461541Y-66588914D02*
X46504398Y-66631771D01*
X46504398Y-66631771D02*
X46547255Y-66717485D01*
X46547255Y-66717485D02*
X46547255Y-66846057D01*
X46547255Y-66846057D02*
X46504398Y-66931771D01*
X46504398Y-66931771D02*
X46461541Y-66974628D01*
X46461541Y-66974628D02*
X46375826Y-67017485D01*
X46375826Y-67017485D02*
X46032969Y-67017485D01*
X46932969Y-67446057D02*
X46932969Y-66846057D01*
X46932969Y-67017485D02*
X46975826Y-66931771D01*
X46975826Y-66931771D02*
X47018684Y-66888914D01*
X47018684Y-66888914D02*
X47104398Y-66846057D01*
X47104398Y-66846057D02*
X47190112Y-66846057D01*
X47832969Y-67403200D02*
X47747255Y-67446057D01*
X47747255Y-67446057D02*
X47575827Y-67446057D01*
X47575827Y-67446057D02*
X47490112Y-67403200D01*
X47490112Y-67403200D02*
X47447255Y-67317485D01*
X47447255Y-67317485D02*
X47447255Y-66974628D01*
X47447255Y-66974628D02*
X47490112Y-66888914D01*
X47490112Y-66888914D02*
X47575827Y-66846057D01*
X47575827Y-66846057D02*
X47747255Y-66846057D01*
X47747255Y-66846057D02*
X47832969Y-66888914D01*
X47832969Y-66888914D02*
X47875827Y-66974628D01*
X47875827Y-66974628D02*
X47875827Y-67060342D01*
X47875827Y-67060342D02*
X47447255Y-67146057D01*
X48732970Y-67446057D02*
X48218684Y-67446057D01*
X48475827Y-67446057D02*
X48475827Y-66546057D01*
X48475827Y-66546057D02*
X48390113Y-66674628D01*
X48390113Y-66674628D02*
X48304398Y-66760342D01*
X48304398Y-66760342D02*
X48218684Y-66803200D01*
X46032969Y-64398057D02*
X46032969Y-63498057D01*
X46032969Y-63498057D02*
X46375826Y-63498057D01*
X46375826Y-63498057D02*
X46461541Y-63540914D01*
X46461541Y-63540914D02*
X46504398Y-63583771D01*
X46504398Y-63583771D02*
X46547255Y-63669485D01*
X46547255Y-63669485D02*
X46547255Y-63798057D01*
X46547255Y-63798057D02*
X46504398Y-63883771D01*
X46504398Y-63883771D02*
X46461541Y-63926628D01*
X46461541Y-63926628D02*
X46375826Y-63969485D01*
X46375826Y-63969485D02*
X46032969Y-63969485D01*
X46932969Y-64398057D02*
X46932969Y-63798057D01*
X46932969Y-63969485D02*
X46975826Y-63883771D01*
X46975826Y-63883771D02*
X47018684Y-63840914D01*
X47018684Y-63840914D02*
X47104398Y-63798057D01*
X47104398Y-63798057D02*
X47190112Y-63798057D01*
X47832969Y-64355200D02*
X47747255Y-64398057D01*
X47747255Y-64398057D02*
X47575827Y-64398057D01*
X47575827Y-64398057D02*
X47490112Y-64355200D01*
X47490112Y-64355200D02*
X47447255Y-64269485D01*
X47447255Y-64269485D02*
X47447255Y-63926628D01*
X47447255Y-63926628D02*
X47490112Y-63840914D01*
X47490112Y-63840914D02*
X47575827Y-63798057D01*
X47575827Y-63798057D02*
X47747255Y-63798057D01*
X47747255Y-63798057D02*
X47832969Y-63840914D01*
X47832969Y-63840914D02*
X47875827Y-63926628D01*
X47875827Y-63926628D02*
X47875827Y-64012342D01*
X47875827Y-64012342D02*
X47447255Y-64098057D01*
X48432970Y-63498057D02*
X48518684Y-63498057D01*
X48518684Y-63498057D02*
X48604398Y-63540914D01*
X48604398Y-63540914D02*
X48647256Y-63583771D01*
X48647256Y-63583771D02*
X48690113Y-63669485D01*
X48690113Y-63669485D02*
X48732970Y-63840914D01*
X48732970Y-63840914D02*
X48732970Y-64055200D01*
X48732970Y-64055200D02*
X48690113Y-64226628D01*
X48690113Y-64226628D02*
X48647256Y-64312342D01*
X48647256Y-64312342D02*
X48604398Y-64355200D01*
X48604398Y-64355200D02*
X48518684Y-64398057D01*
X48518684Y-64398057D02*
X48432970Y-64398057D01*
X48432970Y-64398057D02*
X48347256Y-64355200D01*
X48347256Y-64355200D02*
X48304398Y-64312342D01*
X48304398Y-64312342D02*
X48261541Y-64226628D01*
X48261541Y-64226628D02*
X48218684Y-64055200D01*
X48218684Y-64055200D02*
X48218684Y-63840914D01*
X48218684Y-63840914D02*
X48261541Y-63669485D01*
X48261541Y-63669485D02*
X48304398Y-63583771D01*
X48304398Y-63583771D02*
X48347256Y-63540914D01*
X48347256Y-63540914D02*
X48432970Y-63498057D01*
X46868969Y-61858057D02*
X46868969Y-60958057D01*
X46868969Y-60958057D02*
X47168969Y-61600914D01*
X47168969Y-61600914D02*
X47468969Y-60958057D01*
X47468969Y-60958057D02*
X47468969Y-61858057D01*
X48326112Y-61858057D02*
X47897540Y-61858057D01*
X47897540Y-61858057D02*
X47897540Y-60958057D01*
X46532398Y-58418057D02*
X46703826Y-58418057D01*
X46703826Y-58418057D02*
X46789541Y-58460914D01*
X46789541Y-58460914D02*
X46875255Y-58546628D01*
X46875255Y-58546628D02*
X46918112Y-58718057D01*
X46918112Y-58718057D02*
X46918112Y-59018057D01*
X46918112Y-59018057D02*
X46875255Y-59189485D01*
X46875255Y-59189485D02*
X46789541Y-59275200D01*
X46789541Y-59275200D02*
X46703826Y-59318057D01*
X46703826Y-59318057D02*
X46532398Y-59318057D01*
X46532398Y-59318057D02*
X46446684Y-59275200D01*
X46446684Y-59275200D02*
X46360969Y-59189485D01*
X46360969Y-59189485D02*
X46318112Y-59018057D01*
X46318112Y-59018057D02*
X46318112Y-58718057D01*
X46318112Y-58718057D02*
X46360969Y-58546628D01*
X46360969Y-58546628D02*
X46446684Y-58460914D01*
X46446684Y-58460914D02*
X46532398Y-58418057D01*
X47689541Y-58718057D02*
X47689541Y-59318057D01*
X47303826Y-58718057D02*
X47303826Y-59189485D01*
X47303826Y-59189485D02*
X47346683Y-59275200D01*
X47346683Y-59275200D02*
X47432398Y-59318057D01*
X47432398Y-59318057D02*
X47560969Y-59318057D01*
X47560969Y-59318057D02*
X47646683Y-59275200D01*
X47646683Y-59275200D02*
X47689541Y-59232342D01*
X47989541Y-58718057D02*
X48332398Y-58718057D01*
X48118112Y-58418057D02*
X48118112Y-59189485D01*
X48118112Y-59189485D02*
X48160969Y-59275200D01*
X48160969Y-59275200D02*
X48246684Y-59318057D01*
X48246684Y-59318057D02*
X48332398Y-59318057D01*
X45852969Y-56943200D02*
X46538684Y-56943200D01*
X46195826Y-57286057D02*
X46195826Y-56600342D01*
X47395827Y-56386057D02*
X46967255Y-56386057D01*
X46967255Y-56386057D02*
X46924398Y-56814628D01*
X46924398Y-56814628D02*
X46967255Y-56771771D01*
X46967255Y-56771771D02*
X47052970Y-56728914D01*
X47052970Y-56728914D02*
X47267255Y-56728914D01*
X47267255Y-56728914D02*
X47352970Y-56771771D01*
X47352970Y-56771771D02*
X47395827Y-56814628D01*
X47395827Y-56814628D02*
X47438684Y-56900342D01*
X47438684Y-56900342D02*
X47438684Y-57114628D01*
X47438684Y-57114628D02*
X47395827Y-57200342D01*
X47395827Y-57200342D02*
X47352970Y-57243200D01*
X47352970Y-57243200D02*
X47267255Y-57286057D01*
X47267255Y-57286057D02*
X47052970Y-57286057D01*
X47052970Y-57286057D02*
X46967255Y-57243200D01*
X46967255Y-57243200D02*
X46924398Y-57200342D01*
X47695827Y-56386057D02*
X47995827Y-57286057D01*
X47995827Y-57286057D02*
X48295827Y-56386057D01*
X46504398Y-53888914D02*
X46418684Y-53846057D01*
X46418684Y-53846057D02*
X46290112Y-53846057D01*
X46290112Y-53846057D02*
X46161541Y-53888914D01*
X46161541Y-53888914D02*
X46075826Y-53974628D01*
X46075826Y-53974628D02*
X46032969Y-54060342D01*
X46032969Y-54060342D02*
X45990112Y-54231771D01*
X45990112Y-54231771D02*
X45990112Y-54360342D01*
X45990112Y-54360342D02*
X46032969Y-54531771D01*
X46032969Y-54531771D02*
X46075826Y-54617485D01*
X46075826Y-54617485D02*
X46161541Y-54703200D01*
X46161541Y-54703200D02*
X46290112Y-54746057D01*
X46290112Y-54746057D02*
X46375826Y-54746057D01*
X46375826Y-54746057D02*
X46504398Y-54703200D01*
X46504398Y-54703200D02*
X46547255Y-54660342D01*
X46547255Y-54660342D02*
X46547255Y-54360342D01*
X46547255Y-54360342D02*
X46375826Y-54360342D01*
X46932969Y-54746057D02*
X46932969Y-53846057D01*
X46932969Y-53846057D02*
X47447255Y-54746057D01*
X47447255Y-54746057D02*
X47447255Y-53846057D01*
X47875826Y-54746057D02*
X47875826Y-53846057D01*
X47875826Y-53846057D02*
X48090112Y-53846057D01*
X48090112Y-53846057D02*
X48218683Y-53888914D01*
X48218683Y-53888914D02*
X48304398Y-53974628D01*
X48304398Y-53974628D02*
X48347255Y-54060342D01*
X48347255Y-54060342D02*
X48390112Y-54231771D01*
X48390112Y-54231771D02*
X48390112Y-54360342D01*
X48390112Y-54360342D02*
X48347255Y-54531771D01*
X48347255Y-54531771D02*
X48304398Y-54617485D01*
X48304398Y-54617485D02*
X48218683Y-54703200D01*
X48218683Y-54703200D02*
X48090112Y-54746057D01*
X48090112Y-54746057D02*
X47875826Y-54746057D01*
D11*
X34082510Y-72569828D02*
X34082510Y-71069828D01*
X34082510Y-71069828D02*
X34439653Y-71069828D01*
X34439653Y-71069828D02*
X34653939Y-71141257D01*
X34653939Y-71141257D02*
X34796796Y-71284114D01*
X34796796Y-71284114D02*
X34868225Y-71426971D01*
X34868225Y-71426971D02*
X34939653Y-71712685D01*
X34939653Y-71712685D02*
X34939653Y-71926971D01*
X34939653Y-71926971D02*
X34868225Y-72212685D01*
X34868225Y-72212685D02*
X34796796Y-72355542D01*
X34796796Y-72355542D02*
X34653939Y-72498400D01*
X34653939Y-72498400D02*
X34439653Y-72569828D01*
X34439653Y-72569828D02*
X34082510Y-72569828D01*
X35511082Y-72141257D02*
X36225368Y-72141257D01*
X35368225Y-72569828D02*
X35868225Y-71069828D01*
X35868225Y-71069828D02*
X36368225Y-72569828D01*
X37725367Y-72426971D02*
X37653939Y-72498400D01*
X37653939Y-72498400D02*
X37439653Y-72569828D01*
X37439653Y-72569828D02*
X37296796Y-72569828D01*
X37296796Y-72569828D02*
X37082510Y-72498400D01*
X37082510Y-72498400D02*
X36939653Y-72355542D01*
X36939653Y-72355542D02*
X36868224Y-72212685D01*
X36868224Y-72212685D02*
X36796796Y-71926971D01*
X36796796Y-71926971D02*
X36796796Y-71712685D01*
X36796796Y-71712685D02*
X36868224Y-71426971D01*
X36868224Y-71426971D02*
X36939653Y-71284114D01*
X36939653Y-71284114D02*
X37082510Y-71141257D01*
X37082510Y-71141257D02*
X37296796Y-71069828D01*
X37296796Y-71069828D02*
X37439653Y-71069828D01*
X37439653Y-71069828D02*
X37653939Y-71141257D01*
X37653939Y-71141257D02*
X37725367Y-71212685D01*
X34082510Y-74984828D02*
X34082510Y-73484828D01*
X34082510Y-73484828D02*
X34439653Y-73484828D01*
X34439653Y-73484828D02*
X34653939Y-73556257D01*
X34653939Y-73556257D02*
X34796796Y-73699114D01*
X34796796Y-73699114D02*
X34868225Y-73841971D01*
X34868225Y-73841971D02*
X34939653Y-74127685D01*
X34939653Y-74127685D02*
X34939653Y-74341971D01*
X34939653Y-74341971D02*
X34868225Y-74627685D01*
X34868225Y-74627685D02*
X34796796Y-74770542D01*
X34796796Y-74770542D02*
X34653939Y-74913400D01*
X34653939Y-74913400D02*
X34439653Y-74984828D01*
X34439653Y-74984828D02*
X34082510Y-74984828D01*
X35582510Y-74984828D02*
X35582510Y-73984828D01*
X35582510Y-73484828D02*
X35511082Y-73556257D01*
X35511082Y-73556257D02*
X35582510Y-73627685D01*
X35582510Y-73627685D02*
X35653939Y-73556257D01*
X35653939Y-73556257D02*
X35582510Y-73484828D01*
X35582510Y-73484828D02*
X35582510Y-73627685D01*
X36939654Y-73984828D02*
X36939654Y-75199114D01*
X36939654Y-75199114D02*
X36868225Y-75341971D01*
X36868225Y-75341971D02*
X36796796Y-75413400D01*
X36796796Y-75413400D02*
X36653939Y-75484828D01*
X36653939Y-75484828D02*
X36439654Y-75484828D01*
X36439654Y-75484828D02*
X36296796Y-75413400D01*
X36939654Y-74913400D02*
X36796796Y-74984828D01*
X36796796Y-74984828D02*
X36511082Y-74984828D01*
X36511082Y-74984828D02*
X36368225Y-74913400D01*
X36368225Y-74913400D02*
X36296796Y-74841971D01*
X36296796Y-74841971D02*
X36225368Y-74699114D01*
X36225368Y-74699114D02*
X36225368Y-74270542D01*
X36225368Y-74270542D02*
X36296796Y-74127685D01*
X36296796Y-74127685D02*
X36368225Y-74056257D01*
X36368225Y-74056257D02*
X36511082Y-73984828D01*
X36511082Y-73984828D02*
X36796796Y-73984828D01*
X36796796Y-73984828D02*
X36939654Y-74056257D01*
X37653939Y-74984828D02*
X37653939Y-73984828D01*
X37653939Y-73484828D02*
X37582511Y-73556257D01*
X37582511Y-73556257D02*
X37653939Y-73627685D01*
X37653939Y-73627685D02*
X37725368Y-73556257D01*
X37725368Y-73556257D02*
X37653939Y-73484828D01*
X37653939Y-73484828D02*
X37653939Y-73627685D01*
X40011082Y-74199114D02*
X40225368Y-74270542D01*
X40225368Y-74270542D02*
X40296797Y-74341971D01*
X40296797Y-74341971D02*
X40368225Y-74484828D01*
X40368225Y-74484828D02*
X40368225Y-74699114D01*
X40368225Y-74699114D02*
X40296797Y-74841971D01*
X40296797Y-74841971D02*
X40225368Y-74913400D01*
X40225368Y-74913400D02*
X40082511Y-74984828D01*
X40082511Y-74984828D02*
X39511082Y-74984828D01*
X39511082Y-74984828D02*
X39511082Y-73484828D01*
X39511082Y-73484828D02*
X40011082Y-73484828D01*
X40011082Y-73484828D02*
X40153940Y-73556257D01*
X40153940Y-73556257D02*
X40225368Y-73627685D01*
X40225368Y-73627685D02*
X40296797Y-73770542D01*
X40296797Y-73770542D02*
X40296797Y-73913400D01*
X40296797Y-73913400D02*
X40225368Y-74056257D01*
X40225368Y-74056257D02*
X40153940Y-74127685D01*
X40153940Y-74127685D02*
X40011082Y-74199114D01*
X40011082Y-74199114D02*
X39511082Y-74199114D01*
X41225368Y-74984828D02*
X41082511Y-74913400D01*
X41082511Y-74913400D02*
X41011082Y-74841971D01*
X41011082Y-74841971D02*
X40939654Y-74699114D01*
X40939654Y-74699114D02*
X40939654Y-74270542D01*
X40939654Y-74270542D02*
X41011082Y-74127685D01*
X41011082Y-74127685D02*
X41082511Y-74056257D01*
X41082511Y-74056257D02*
X41225368Y-73984828D01*
X41225368Y-73984828D02*
X41439654Y-73984828D01*
X41439654Y-73984828D02*
X41582511Y-74056257D01*
X41582511Y-74056257D02*
X41653940Y-74127685D01*
X41653940Y-74127685D02*
X41725368Y-74270542D01*
X41725368Y-74270542D02*
X41725368Y-74699114D01*
X41725368Y-74699114D02*
X41653940Y-74841971D01*
X41653940Y-74841971D02*
X41582511Y-74913400D01*
X41582511Y-74913400D02*
X41439654Y-74984828D01*
X41439654Y-74984828D02*
X41225368Y-74984828D01*
X43011083Y-74984828D02*
X43011083Y-74199114D01*
X43011083Y-74199114D02*
X42939654Y-74056257D01*
X42939654Y-74056257D02*
X42796797Y-73984828D01*
X42796797Y-73984828D02*
X42511083Y-73984828D01*
X42511083Y-73984828D02*
X42368225Y-74056257D01*
X43011083Y-74913400D02*
X42868225Y-74984828D01*
X42868225Y-74984828D02*
X42511083Y-74984828D01*
X42511083Y-74984828D02*
X42368225Y-74913400D01*
X42368225Y-74913400D02*
X42296797Y-74770542D01*
X42296797Y-74770542D02*
X42296797Y-74627685D01*
X42296797Y-74627685D02*
X42368225Y-74484828D01*
X42368225Y-74484828D02*
X42511083Y-74413400D01*
X42511083Y-74413400D02*
X42868225Y-74413400D01*
X42868225Y-74413400D02*
X43011083Y-74341971D01*
X43725368Y-74984828D02*
X43725368Y-73984828D01*
X43725368Y-74270542D02*
X43796797Y-74127685D01*
X43796797Y-74127685D02*
X43868226Y-74056257D01*
X43868226Y-74056257D02*
X44011083Y-73984828D01*
X44011083Y-73984828D02*
X44153940Y-73984828D01*
X45296797Y-74984828D02*
X45296797Y-73484828D01*
X45296797Y-74913400D02*
X45153939Y-74984828D01*
X45153939Y-74984828D02*
X44868225Y-74984828D01*
X44868225Y-74984828D02*
X44725368Y-74913400D01*
X44725368Y-74913400D02*
X44653939Y-74841971D01*
X44653939Y-74841971D02*
X44582511Y-74699114D01*
X44582511Y-74699114D02*
X44582511Y-74270542D01*
X44582511Y-74270542D02*
X44653939Y-74127685D01*
X44653939Y-74127685D02*
X44725368Y-74056257D01*
X44725368Y-74056257D02*
X44868225Y-73984828D01*
X44868225Y-73984828D02*
X45153939Y-73984828D01*
X45153939Y-73984828D02*
X45296797Y-74056257D01*
D10*
X49300000Y-24838819D02*
X49300000Y-23838819D01*
X49300000Y-23838819D02*
X49538095Y-23838819D01*
X49538095Y-23838819D02*
X49680952Y-23886438D01*
X49680952Y-23886438D02*
X49776190Y-23981676D01*
X49776190Y-23981676D02*
X49823809Y-24076914D01*
X49823809Y-24076914D02*
X49871428Y-24267390D01*
X49871428Y-24267390D02*
X49871428Y-24410247D01*
X49871428Y-24410247D02*
X49823809Y-24600723D01*
X49823809Y-24600723D02*
X49776190Y-24695961D01*
X49776190Y-24695961D02*
X49680952Y-24791200D01*
X49680952Y-24791200D02*
X49538095Y-24838819D01*
X49538095Y-24838819D02*
X49300000Y-24838819D01*
X50252381Y-24553104D02*
X50728571Y-24553104D01*
X50157143Y-24838819D02*
X50490476Y-23838819D01*
X50490476Y-23838819D02*
X50823809Y-24838819D01*
X51014286Y-23838819D02*
X51585714Y-23838819D01*
X51300000Y-24838819D02*
X51300000Y-23838819D01*
X51871429Y-24553104D02*
X52347619Y-24553104D01*
X51776191Y-24838819D02*
X52109524Y-23838819D01*
X52109524Y-23838819D02*
X52442857Y-24838819D01*
X42565819Y-53760666D02*
X42089628Y-54093999D01*
X42565819Y-54332094D02*
X41565819Y-54332094D01*
X41565819Y-54332094D02*
X41565819Y-53951142D01*
X41565819Y-53951142D02*
X41613438Y-53855904D01*
X41613438Y-53855904D02*
X41661057Y-53808285D01*
X41661057Y-53808285D02*
X41756295Y-53760666D01*
X41756295Y-53760666D02*
X41899152Y-53760666D01*
X41899152Y-53760666D02*
X41994390Y-53808285D01*
X41994390Y-53808285D02*
X42042009Y-53855904D01*
X42042009Y-53855904D02*
X42089628Y-53951142D01*
X42089628Y-53951142D02*
X42089628Y-54332094D01*
X42565819Y-52808285D02*
X42565819Y-53379713D01*
X42565819Y-53093999D02*
X41565819Y-53093999D01*
X41565819Y-53093999D02*
X41708676Y-53189237D01*
X41708676Y-53189237D02*
X41803914Y-53284475D01*
X41803914Y-53284475D02*
X41851533Y-53379713D01*
X30146666Y-32982819D02*
X30146666Y-33697104D01*
X30146666Y-33697104D02*
X30099047Y-33839961D01*
X30099047Y-33839961D02*
X30003809Y-33935200D01*
X30003809Y-33935200D02*
X29860952Y-33982819D01*
X29860952Y-33982819D02*
X29765714Y-33982819D01*
X31051428Y-32982819D02*
X30860952Y-32982819D01*
X30860952Y-32982819D02*
X30765714Y-33030438D01*
X30765714Y-33030438D02*
X30718095Y-33078057D01*
X30718095Y-33078057D02*
X30622857Y-33220914D01*
X30622857Y-33220914D02*
X30575238Y-33411390D01*
X30575238Y-33411390D02*
X30575238Y-33792342D01*
X30575238Y-33792342D02*
X30622857Y-33887580D01*
X30622857Y-33887580D02*
X30670476Y-33935200D01*
X30670476Y-33935200D02*
X30765714Y-33982819D01*
X30765714Y-33982819D02*
X30956190Y-33982819D01*
X30956190Y-33982819D02*
X31051428Y-33935200D01*
X31051428Y-33935200D02*
X31099047Y-33887580D01*
X31099047Y-33887580D02*
X31146666Y-33792342D01*
X31146666Y-33792342D02*
X31146666Y-33554247D01*
X31146666Y-33554247D02*
X31099047Y-33459009D01*
X31099047Y-33459009D02*
X31051428Y-33411390D01*
X31051428Y-33411390D02*
X30956190Y-33363771D01*
X30956190Y-33363771D02*
X30765714Y-33363771D01*
X30765714Y-33363771D02*
X30670476Y-33411390D01*
X30670476Y-33411390D02*
X30622857Y-33459009D01*
X30622857Y-33459009D02*
X30575238Y-33554247D01*
X50238819Y-51538094D02*
X49238819Y-51538094D01*
X49238819Y-51538094D02*
X49238819Y-51299999D01*
X49238819Y-51299999D02*
X49286438Y-51157142D01*
X49286438Y-51157142D02*
X49381676Y-51061904D01*
X49381676Y-51061904D02*
X49476914Y-51014285D01*
X49476914Y-51014285D02*
X49667390Y-50966666D01*
X49667390Y-50966666D02*
X49810247Y-50966666D01*
X49810247Y-50966666D02*
X50000723Y-51014285D01*
X50000723Y-51014285D02*
X50095961Y-51061904D01*
X50095961Y-51061904D02*
X50191200Y-51157142D01*
X50191200Y-51157142D02*
X50238819Y-51299999D01*
X50238819Y-51299999D02*
X50238819Y-51538094D01*
X50238819Y-50014285D02*
X50238819Y-50585713D01*
X50238819Y-50299999D02*
X49238819Y-50299999D01*
X49238819Y-50299999D02*
X49381676Y-50395237D01*
X49381676Y-50395237D02*
X49476914Y-50490475D01*
X49476914Y-50490475D02*
X49524533Y-50585713D01*
D12*
X49470000Y-28194000D02*
X52130000Y-28194000D01*
X49470000Y-46034000D02*
X52130000Y-46034000D01*
X49470000Y-28194000D02*
X49470000Y-46034000D01*
X49470000Y-26924000D02*
X49470000Y-25594000D01*
X52130000Y-28194000D02*
X52130000Y-46034000D01*
X49470000Y-25594000D02*
X50800000Y-25594000D01*
X44926000Y-52866936D02*
X44926000Y-54321064D01*
X43106000Y-52866936D02*
X43106000Y-54321064D01*
X29090000Y-25400000D02*
X29090000Y-68640000D01*
X26430000Y-24130000D02*
X26430000Y-22800000D01*
X26430000Y-25400000D02*
X29090000Y-25400000D01*
X26430000Y-25400000D02*
X26430000Y-68640000D01*
X26430000Y-22800000D02*
X27760000Y-22800000D01*
X26430000Y-68640000D02*
X29090000Y-68640000D01*
X49470000Y-55118000D02*
X49470000Y-67878000D01*
X49470000Y-53848000D02*
X49470000Y-52518000D01*
X49470000Y-52518000D02*
X50800000Y-52518000D01*
X49470000Y-55118000D02*
X52130000Y-55118000D01*
X49470000Y-67878000D02*
X52130000Y-67878000D01*
X52130000Y-55118000D02*
X52130000Y-67878000D01*
X52244000Y-49665000D02*
X48184000Y-49665000D01*
X52244000Y-51935000D02*
X52244000Y-49665000D01*
X48184000Y-51935000D02*
X52244000Y-51935000D01*
M02*
