G04 #@! TF.GenerationSoftware,KiCad,Pcbnew,7.0.9-7.0.9~ubuntu22.04.1*
G04 #@! TF.CreationDate,2023-11-21T00:20:31+01:00*
G04 #@! TF.ProjectId,dac-pcb,6461632d-7063-4622-9e6b-696361645f70,rev?*
G04 #@! TF.SameCoordinates,Original*
G04 #@! TF.FileFunction,Legend,Top*
G04 #@! TF.FilePolarity,Positive*
%FSLAX46Y46*%
G04 Gerber Fmt 4.6, Leading zero omitted, Abs format (unit mm)*
G04 Created by KiCad (PCBNEW 7.0.9-7.0.9~ubuntu22.04.1) date 2023-11-21 00:20:31*
%MOMM*%
%LPD*%
G01*
G04 APERTURE LIST*
G04 Aperture macros list*
%AMRoundRect*
0 Rectangle with rounded corners*
0 $1 Rounding radius*
0 $2 $3 $4 $5 $6 $7 $8 $9 X,Y pos of 4 corners*
0 Add a 4 corners polygon primitive as box body*
4,1,4,$2,$3,$4,$5,$6,$7,$8,$9,$2,$3,0*
0 Add four circle primitives for the rounded corners*
1,1,$1+$1,$2,$3*
1,1,$1+$1,$4,$5*
1,1,$1+$1,$6,$7*
1,1,$1+$1,$8,$9*
0 Add four rect primitives between the rounded corners*
20,1,$1+$1,$2,$3,$4,$5,0*
20,1,$1+$1,$4,$5,$6,$7,0*
20,1,$1+$1,$6,$7,$8,$9,0*
20,1,$1+$1,$8,$9,$2,$3,0*%
G04 Aperture macros list end*
%ADD10C,0.300000*%
%ADD11C,0.120000*%
%ADD12RoundRect,0.250000X-0.625000X0.312500X-0.625000X-0.312500X0.625000X-0.312500X0.625000X0.312500X0*%
%ADD13RoundRect,0.250000X0.625000X-0.312500X0.625000X0.312500X-0.625000X0.312500X-0.625000X-0.312500X0*%
%ADD14R,1.700000X1.700000*%
%ADD15O,1.700000X1.700000*%
G04 APERTURE END LIST*
D10*
X128928257Y-18979774D02*
X128856828Y-19122632D01*
X128856828Y-19122632D02*
X128856828Y-19336917D01*
X128856828Y-19336917D02*
X128928257Y-19551203D01*
X128928257Y-19551203D02*
X129071114Y-19694060D01*
X129071114Y-19694060D02*
X129213971Y-19765489D01*
X129213971Y-19765489D02*
X129499685Y-19836917D01*
X129499685Y-19836917D02*
X129713971Y-19836917D01*
X129713971Y-19836917D02*
X129999685Y-19765489D01*
X129999685Y-19765489D02*
X130142542Y-19694060D01*
X130142542Y-19694060D02*
X130285400Y-19551203D01*
X130285400Y-19551203D02*
X130356828Y-19336917D01*
X130356828Y-19336917D02*
X130356828Y-19194060D01*
X130356828Y-19194060D02*
X130285400Y-18979774D01*
X130285400Y-18979774D02*
X130213971Y-18908346D01*
X130213971Y-18908346D02*
X129713971Y-18908346D01*
X129713971Y-18908346D02*
X129713971Y-19194060D01*
X130356828Y-18265489D02*
X128856828Y-18265489D01*
X128856828Y-18265489D02*
X130356828Y-17408346D01*
X130356828Y-17408346D02*
X128856828Y-17408346D01*
X130356828Y-16694060D02*
X128856828Y-16694060D01*
X128856828Y-16694060D02*
X128856828Y-16336917D01*
X128856828Y-16336917D02*
X128928257Y-16122631D01*
X128928257Y-16122631D02*
X129071114Y-15979774D01*
X129071114Y-15979774D02*
X129213971Y-15908345D01*
X129213971Y-15908345D02*
X129499685Y-15836917D01*
X129499685Y-15836917D02*
X129713971Y-15836917D01*
X129713971Y-15836917D02*
X129999685Y-15908345D01*
X129999685Y-15908345D02*
X130142542Y-15979774D01*
X130142542Y-15979774D02*
X130285400Y-16122631D01*
X130285400Y-16122631D02*
X130356828Y-16336917D01*
X130356828Y-16336917D02*
X130356828Y-16694060D01*
X172036828Y-28877774D02*
X172036828Y-28592060D01*
X172036828Y-28592060D02*
X172108257Y-28449203D01*
X172108257Y-28449203D02*
X172251114Y-28306346D01*
X172251114Y-28306346D02*
X172536828Y-28234917D01*
X172536828Y-28234917D02*
X173036828Y-28234917D01*
X173036828Y-28234917D02*
X173322542Y-28306346D01*
X173322542Y-28306346D02*
X173465400Y-28449203D01*
X173465400Y-28449203D02*
X173536828Y-28592060D01*
X173536828Y-28592060D02*
X173536828Y-28877774D01*
X173536828Y-28877774D02*
X173465400Y-29020632D01*
X173465400Y-29020632D02*
X173322542Y-29163489D01*
X173322542Y-29163489D02*
X173036828Y-29234917D01*
X173036828Y-29234917D02*
X172536828Y-29234917D01*
X172536828Y-29234917D02*
X172251114Y-29163489D01*
X172251114Y-29163489D02*
X172108257Y-29020632D01*
X172108257Y-29020632D02*
X172036828Y-28877774D01*
X172536828Y-26949203D02*
X173536828Y-26949203D01*
X172536828Y-27592060D02*
X173322542Y-27592060D01*
X173322542Y-27592060D02*
X173465400Y-27520631D01*
X173465400Y-27520631D02*
X173536828Y-27377774D01*
X173536828Y-27377774D02*
X173536828Y-27163488D01*
X173536828Y-27163488D02*
X173465400Y-27020631D01*
X173465400Y-27020631D02*
X173393971Y-26949203D01*
X172536828Y-26449202D02*
X172536828Y-25877774D01*
X172036828Y-26234917D02*
X173322542Y-26234917D01*
X173322542Y-26234917D02*
X173465400Y-26163488D01*
X173465400Y-26163488D02*
X173536828Y-26020631D01*
X173536828Y-26020631D02*
X173536828Y-25877774D01*
D11*
X159110000Y-22132936D02*
X159110000Y-23587064D01*
X160930000Y-22132936D02*
X160930000Y-23587064D01*
X136250000Y-18507064D02*
X136250000Y-17052936D01*
X138070000Y-18507064D02*
X138070000Y-17052936D01*
X148950000Y-27151436D02*
X148950000Y-28605564D01*
X150770000Y-27151436D02*
X150770000Y-28605564D01*
X156570000Y-22132936D02*
X156570000Y-23587064D01*
X158390000Y-22132936D02*
X158390000Y-23587064D01*
X151490000Y-18507064D02*
X151490000Y-17052936D01*
X153310000Y-18507064D02*
X153310000Y-17052936D01*
X154030000Y-27151436D02*
X154030000Y-28605564D01*
X155850000Y-27151436D02*
X155850000Y-28605564D01*
X169270000Y-27151436D02*
X169270000Y-28605564D01*
X171090000Y-27151436D02*
X171090000Y-28605564D01*
X138790000Y-18507064D02*
X138790000Y-17052936D01*
X140610000Y-18507064D02*
X140610000Y-17052936D01*
X164190000Y-27151436D02*
X164190000Y-28605564D01*
X166010000Y-27151436D02*
X166010000Y-28605564D01*
X169270000Y-22132936D02*
X169270000Y-23587064D01*
X171090000Y-22132936D02*
X171090000Y-23587064D01*
X166730000Y-22132936D02*
X166730000Y-23587064D01*
X168550000Y-22132936D02*
X168550000Y-23587064D01*
X133710000Y-22132936D02*
X133710000Y-23587064D01*
X135530000Y-22132936D02*
X135530000Y-23587064D01*
X143870000Y-27151436D02*
X143870000Y-28605564D01*
X145690000Y-27151436D02*
X145690000Y-28605564D01*
X161650000Y-22132936D02*
X161650000Y-23587064D01*
X163470000Y-22132936D02*
X163470000Y-23587064D01*
X135530000Y-27212936D02*
X135530000Y-28667064D01*
X133710000Y-27212936D02*
X133710000Y-28667064D01*
X140610000Y-27212936D02*
X140610000Y-28667064D01*
X138790000Y-27212936D02*
X138790000Y-28667064D01*
X151490000Y-22132936D02*
X151490000Y-23587064D01*
X153310000Y-22132936D02*
X153310000Y-23587064D01*
X143870000Y-22132936D02*
X143870000Y-23587064D01*
X145690000Y-22132936D02*
X145690000Y-23587064D01*
X159110000Y-27151436D02*
X159110000Y-28605564D01*
X160930000Y-27151436D02*
X160930000Y-28605564D01*
X150770000Y-18507064D02*
X150770000Y-17052936D01*
X148950000Y-18507064D02*
X148950000Y-17052936D01*
X132990000Y-18507064D02*
X132990000Y-17052936D01*
X131170000Y-18507064D02*
X131170000Y-17052936D01*
X128630000Y-22132936D02*
X128630000Y-23587064D01*
X130450000Y-22132936D02*
X130450000Y-23587064D01*
X133710000Y-18507064D02*
X133710000Y-17052936D01*
X135530000Y-18507064D02*
X135530000Y-17052936D01*
X128630000Y-27151436D02*
X128630000Y-28605564D01*
X130450000Y-27151436D02*
X130450000Y-28605564D01*
X156570000Y-18496364D02*
X156570000Y-17042236D01*
X158390000Y-18496364D02*
X158390000Y-17042236D01*
X148230000Y-27162136D02*
X148230000Y-28616264D01*
X146410000Y-27162136D02*
X146410000Y-28616264D01*
X148230000Y-22132936D02*
X148230000Y-23587064D01*
X146410000Y-22132936D02*
X146410000Y-23587064D01*
X164190000Y-18496364D02*
X164190000Y-17042236D01*
X166010000Y-18496364D02*
X166010000Y-17042236D01*
X138070000Y-22132936D02*
X138070000Y-23587064D01*
X136250000Y-22132936D02*
X136250000Y-23587064D01*
X166730000Y-27151436D02*
X166730000Y-28605564D01*
X168550000Y-27151436D02*
X168550000Y-28605564D01*
X151490000Y-27151436D02*
X151490000Y-28605564D01*
X153310000Y-27151436D02*
X153310000Y-28605564D01*
X148950000Y-22132936D02*
X148950000Y-23587064D01*
X150770000Y-22132936D02*
X150770000Y-23587064D01*
X154030000Y-22132936D02*
X154030000Y-23587064D01*
X155850000Y-22132936D02*
X155850000Y-23587064D01*
X143150000Y-27151436D02*
X143150000Y-28605564D01*
X141330000Y-27151436D02*
X141330000Y-28605564D01*
X136250000Y-27212936D02*
X136250000Y-28667064D01*
X138070000Y-27212936D02*
X138070000Y-28667064D01*
X140610000Y-22132936D02*
X140610000Y-23587064D01*
X138790000Y-22132936D02*
X138790000Y-23587064D01*
X141330000Y-22132936D02*
X141330000Y-23587064D01*
X143150000Y-22132936D02*
X143150000Y-23587064D01*
X159110000Y-18496364D02*
X159110000Y-17042236D01*
X160930000Y-18496364D02*
X160930000Y-17042236D01*
X132990000Y-27212936D02*
X132990000Y-28667064D01*
X131170000Y-27212936D02*
X131170000Y-28667064D01*
X164190000Y-22132936D02*
X164190000Y-23587064D01*
X166010000Y-22132936D02*
X166010000Y-23587064D01*
X141330000Y-18507064D02*
X141330000Y-17052936D01*
X143150000Y-18507064D02*
X143150000Y-17052936D01*
X166730000Y-18507064D02*
X166730000Y-17052936D01*
X168550000Y-18507064D02*
X168550000Y-17052936D01*
X156570000Y-27151436D02*
X156570000Y-28605564D01*
X158390000Y-27151436D02*
X158390000Y-28605564D01*
X132990000Y-22132936D02*
X132990000Y-23587064D01*
X131170000Y-22132936D02*
X131170000Y-23587064D01*
X154030000Y-18507064D02*
X154030000Y-17052936D01*
X155850000Y-18507064D02*
X155850000Y-17052936D01*
X143870000Y-18507064D02*
X143870000Y-17052936D01*
X145690000Y-18507064D02*
X145690000Y-17052936D01*
X161650000Y-27151436D02*
X161650000Y-28605564D01*
X163470000Y-27151436D02*
X163470000Y-28605564D01*
X146410000Y-18507064D02*
X146410000Y-17052936D01*
X148230000Y-18507064D02*
X148230000Y-17052936D01*
X161650000Y-18496364D02*
X161650000Y-17042236D01*
X163470000Y-18496364D02*
X163470000Y-17042236D01*
%LPC*%
D12*
X160020000Y-24322500D03*
X160020000Y-21397500D03*
D13*
X137160000Y-19242500D03*
X137160000Y-16317500D03*
D12*
X149860000Y-29341000D03*
X149860000Y-26416000D03*
X157480000Y-24322500D03*
X157480000Y-21397500D03*
D13*
X152400000Y-19242500D03*
X152400000Y-16317500D03*
D12*
X154940000Y-29341000D03*
X154940000Y-26416000D03*
X170180000Y-29341000D03*
X170180000Y-26416000D03*
D13*
X139700000Y-19242500D03*
X139700000Y-16317500D03*
D12*
X165100000Y-29341000D03*
X165100000Y-26416000D03*
X170180000Y-24322500D03*
X170180000Y-21397500D03*
X167640000Y-24322500D03*
X167640000Y-21397500D03*
X134620000Y-24322500D03*
X134620000Y-21397500D03*
X144780000Y-29341000D03*
X144780000Y-26416000D03*
X162560000Y-24322500D03*
X162560000Y-21397500D03*
X134620000Y-26477500D03*
X134620000Y-29402500D03*
X139700000Y-26477500D03*
X139700000Y-29402500D03*
X152400000Y-24322500D03*
X152400000Y-21397500D03*
X144780000Y-24322500D03*
X144780000Y-21397500D03*
X160020000Y-29341000D03*
X160020000Y-26416000D03*
D13*
X149860000Y-16317500D03*
X149860000Y-19242500D03*
X132080000Y-16317500D03*
X132080000Y-19242500D03*
D12*
X129540000Y-24322500D03*
X129540000Y-21397500D03*
D13*
X134620000Y-19242500D03*
X134620000Y-16317500D03*
D12*
X129540000Y-29341000D03*
X129540000Y-26416000D03*
D13*
X157480000Y-19231800D03*
X157480000Y-16306800D03*
D12*
X147320000Y-26426700D03*
X147320000Y-29351700D03*
X147320000Y-21397500D03*
X147320000Y-24322500D03*
D13*
X165100000Y-19231800D03*
X165100000Y-16306800D03*
D12*
X137160000Y-21397500D03*
X137160000Y-24322500D03*
X167640000Y-29341000D03*
X167640000Y-26416000D03*
X152400000Y-29341000D03*
X152400000Y-26416000D03*
X149860000Y-24322500D03*
X149860000Y-21397500D03*
X154940000Y-24322500D03*
X154940000Y-21397500D03*
X142240000Y-26416000D03*
X142240000Y-29341000D03*
X137160000Y-29402500D03*
X137160000Y-26477500D03*
X139700000Y-21397500D03*
X139700000Y-24322500D03*
X142240000Y-24322500D03*
X142240000Y-21397500D03*
D14*
X129540000Y-32258000D03*
D15*
X132080000Y-32258000D03*
X134620000Y-32258000D03*
X137160000Y-32258000D03*
X139700000Y-32258000D03*
X142240000Y-32258000D03*
X144780000Y-32258000D03*
X147320000Y-32258000D03*
X149860000Y-32258000D03*
X152400000Y-32258000D03*
X154940000Y-32258000D03*
X157480000Y-32258000D03*
X160020000Y-32258000D03*
X162560000Y-32258000D03*
X165100000Y-32258000D03*
X167640000Y-32258000D03*
X170180000Y-32258000D03*
X172720000Y-32258000D03*
D13*
X160020000Y-19231800D03*
X160020000Y-16306800D03*
D12*
X132080000Y-26477500D03*
X132080000Y-29402500D03*
X165100000Y-24322500D03*
X165100000Y-21397500D03*
D13*
X142240000Y-19242500D03*
X142240000Y-16317500D03*
X167640000Y-19242500D03*
X167640000Y-16317500D03*
D12*
X157480000Y-29341000D03*
X157480000Y-26416000D03*
X132080000Y-21397500D03*
X132080000Y-24322500D03*
D13*
X154940000Y-19242500D03*
X154940000Y-16317500D03*
X144780000Y-19242500D03*
X144780000Y-16317500D03*
D12*
X162560000Y-29341000D03*
X162560000Y-26416000D03*
D13*
X147320000Y-19242500D03*
X147320000Y-16317500D03*
X162560000Y-19231800D03*
X162560000Y-16306800D03*
%LPD*%
M02*
